<svg width="428" height="380" viewBox="0 0 428 380" fill="none" xmlns="http://www.w3.org/2000/svg">
<path d="M17.8333 0C7.95069 0 0 7.94141 0 17.8125C0 27.6836 7.95069 35.625 17.8333 35.625H56.5465L101.353 270.527C102.987 278.914 110.344 285 118.889 285H362.611C372.494 285 380.444 277.059 380.444 267.188C380.444 257.316 372.494 249.375 362.611 249.375H133.676L126.914 213.75H362.462C373.088 213.75 382.451 206.699 385.349 196.457L425.474 53.957C429.709 38.8164 418.34 23.75 402.587 23.75H90.6528L88.8694 14.4727C87.2347 6.08594 79.8785 0 71.3333 0H17.8333ZM130.778 380C150.469 380 166.444 364.043 166.444 344.375C166.444 324.707 150.469 308.75 130.778 308.75C111.087 308.75 95.1111 324.707 95.1111 344.375C95.1111 364.043 111.087 380 130.778 380ZM380.444 344.375C380.444 324.707 364.469 308.75 344.778 308.75C325.087 308.75 309.111 324.707 309.111 344.375C309.111 364.043 325.087 380 344.778 380C364.469 380 380.444 364.043 380.444 344.375Z" fill="black"/>
</svg>
