<?xml version="1.0" standalone="no"?>
<!DOCTYPE svg PUBLIC "-//W3C//DTD SVG 1.1//EN" "http://www.w3.org/Graphics/SVG/1.1/DTD/svg11.dtd" >
<svg>
<metadata>
Created by FontForge 20110222 at Mon Mar  7 11:20:41 2011
 By www-data
(c) 2009 Made in Fontfabric (c) Sofia, Bulgaria. All Rights Reserved!
</metadata>
<defs>
<font id="VAL" horiz-adv-x="752" >
  <font-face 
    font-family="VAL"
    font-weight="900"
    font-stretch="normal"
    units-per-em="1000"
    panose-1="2 0 0 0 0 0 0 0 0 0"
    ascent="750"
    descent="-250"
    x-height="666"
    cap-height="708"
    bbox="-83 -213 1283 981.01"
    underline-thickness="50"
    underline-position="-50"
    unicode-range="U+0020-2122"
  />
    <missing-glyph />
    <glyph glyph-name="uni00A0" unicode="&#xa0;" horiz-adv-x="300" 
 />
    <glyph glyph-name="exclam" unicode="!" horiz-adv-x="341" 
d="M286 241c17 -24 26 -54 26 -86c0 -87 -69 -156 -156 -156c-86 0 -156 69 -156 156c0 67 44 125 106 148c1 0 3 2 1 6c0 1 -1 3 -5 3c-32 -5 -64 -22 -88 -47c-10 19 -14 42 -14 64v231c0 87 70 156 156 156c87 0 158 -69 158 -156v-231c0 -32 -11 -62 -28 -88z" />
    <glyph glyph-name="quotedbl" unicode="&#x22;" horiz-adv-x="473" 
d="M34 493v119c0 51 43 94 96 94c45 0 82 -31 92 -70c3 -3 8 -3 8 0c10 39 49 70 94 70c51 0 94 -43 94 -94v-119c0 -54 -43 -97 -94 -97c-45 0 -84 30 -94 69c0 5 -5 5 -8 0c-10 -39 -47 -69 -92 -69c-53 0 -96 43 -96 97z" />
    <glyph glyph-name="numbersign" unicode="#" horiz-adv-x="770" 
d="M80 106c-119 36 -109 232 41 243c2 0 5 5 2 5c-134 49 -84 209 40 226c32 127 216 135 240 0c0 -3 5 -3 5 0c38 132 231 125 249 -4c127 -40 104 -233 -41 -243c-2 0 -5 -5 -2 -5c118 -57 87 -220 -39 -227c-34 -127 -209 -134 -240 0c0 2 -5 2 -5 0
c-42 -142 -230 -127 -250 5z" />
    <glyph glyph-name="dollar" unicode="$" horiz-adv-x="698" 
d="M229 11h-76c-133 0 -182 111 -158 202c28 94 138 141 224 98c7 -2 12 6 4 11c-58 32 -137 28 -191 -13c-37 165 50 310 197 356c0 56 46 100 102 100c50 0 94 -37 101 -85h78c123 0 175 -102 158 -187c-18 -100 -133 -162 -226 -113c-8 3 -10 -4 -2 -9
c54 -37 132 -28 189 9c41 -189 -57 -308 -195 -353v0c0 -57 -46 -103 -103 -103c-51 0 -93 37 -102 87z" />
    <glyph glyph-name="uni0025" unicode="%" horiz-adv-x="630" 
d="M33 225l99 124h2c44 0 85 17 114 48c2 4 -4 9 -6 6c-26 -21 -59 -34 -95 -34c-85 0 -155 69 -155 156c0 84 70 151 155 151c72 0 134 -52 149 -122l52 65c52 68 136 86 201 29c57 -49 59 -132 13 -192l-96 -121h-7c-52 0 -99 -25 -127 -64c-1 -3 3 -8 5 -3
c29 26 67 44 111 44c86 0 152 -69 152 -154s-66 -153 -152 -153c-74 0 -136 50 -152 119c-17 -26 -38 -49 -59 -75c-47 -58 -135 -62 -191 -12c-54 48 -59 130 -13 188z" />
    <glyph glyph-name="ampersand" unicode="&#x26;" horiz-adv-x="664" 
d="M622 262v-11c-40 47 -100 62 -156 47c-2 0 -2 -4 3 -4c84 7 171 -57 171 -153c0 -83 -69 -152 -153 -152c-60 0 -110 34 -137 84c-2 3 -7 0 -5 -3c5 -25 22 -47 37 -66c-23 -5 -46 -7 -74 -7c-169 0 -309 118 -309 265c0 46 12 88 36 126c19 -34 51 -64 87 -90
c3 -2 5 3 3 5c-50 43 -82 106 -82 171c0 132 119 240 265 240c151 0 269 -108 269 -240c0 -22 -3 -46 -12 -71c38 -38 57 -85 57 -141zM308 517c-12 0 -25 -11 -25 -27s13 -29 25 -29c18 0 30 13 30 29s-12 27 -30 27z" />
    <glyph glyph-name="quotesingle" unicode="'" horiz-adv-x="269" 
d="M15 497v119c0 52 43 95 98 95c51 0 94 -43 94 -95v-119c0 -54 -43 -96 -94 -96c-55 0 -98 42 -98 96z" />
    <glyph glyph-name="parenleft" unicode="(" horiz-adv-x="344" 
d="M186 809c119 88 245 -52 137 -160c-126 -123 -128 -487 2 -608c114 -107 -13 -253 -132 -164c-242 181 -254 750 -7 932z" />
    <glyph glyph-name="parenright" unicode=")" horiz-adv-x="327" 
d="M110 -159c-119 -88 -245 52 -137 160c126 123 128 568 -2 689c-114 107 13 253 132 164c242 -181 254 -831 7 -1013z" />
    <glyph glyph-name="asterisk" unicode="*" horiz-adv-x="460" 
d="M219 290c-61 0 -93 44 -61 99c1 6 -4 10 -7 4c-32 -56 -94 -46 -120 6c-26 54 2 95 61 95c5 0 5 7 0 7c-63 0 -91 49 -56 104c36 59 84 51 115 -3c3 -4 8 0 7 3c-32 54 -4 103 57 103c64 -2 89 -49 59 -103c-3 -3 2 -7 7 -3c29 54 79 54 115 3c33 -50 5 -104 -58 -104
c-5 0 -5 -7 0 -7c59 0 86 -37 63 -93c-22 -54 -87 -66 -120 -8c-5 6 -10 2 -7 -4c30 -54 5 -102 -55 -99z" />
    <glyph glyph-name="plus" unicode="+" horiz-adv-x="572" 
d="M123 455h96c3 0 3 8 0 8l-51 14v24c0 58 49 106 107 106c59 0 107 -48 107 -106v-46h45c59 0 109 -48 109 -107s-50 -107 -109 -107h-99c-3 0 -5 -7 0 -9l54 -11v-25c0 -59 -48 -109 -107 -109c-58 0 -107 50 -107 109v45h-45c-59 0 -107 48 -107 107s48 107 107 107z
" />
    <glyph glyph-name="comma" unicode="," horiz-adv-x="239" 
d="M109 211c77 0 135 -81 98 -153l-51 -102c-41 -73 -156 -32 -123 56l16 50c1 4 -4 7 -5 3l-21 -30c-16 18 -23 42 -23 68c0 61 49 108 109 108z" />
    <glyph glyph-name="hyphen" unicode="-" horiz-adv-x="415" 
d="M132 419h133c61 0 109 -47 109 -107c0 -59 -48 -106 -109 -106h-133c-61 0 -108 47 -108 106c0 60 47 107 108 107z" />
    <glyph glyph-name="period" unicode="." horiz-adv-x="232" 
d="M102 211c61 0 111 -47 111 -108c0 -60 -50 -110 -111 -110c-59 0 -108 50 -108 110c0 61 49 108 108 108z" />
    <glyph glyph-name="slash" unicode="/" horiz-adv-x="426" 
d="M-6 61c31 107 159 545 188 646c15 58 76 92 134 74c58 -16 92 -76 76 -134c-53 -189 -94 -322 -188 -647c-18 -58 -78 -92 -136 -74c-59 16 -92 76 -74 135z" />
    <glyph glyph-name="zero" unicode="0" 
d="M360 720c201 0 365 -164 365 -364c0 -201 -164 -362 -365 -362c-198 0 -363 161 -363 362c0 200 165 364 363 364zM360 394c-18 0 -36 -15 -36 -38c0 -21 18 -39 36 -39c21 0 39 18 39 39c0 23 -18 38 -39 38z" />
    <glyph glyph-name="one" unicode="1" horiz-adv-x="499" 
d="M308 710c89 0 162 -71 160 -163v-393c0 -88 -71 -159 -160 -159s-160 71 -160 159l3 236c-208 0 -208 320 0 320h157z" />
    <glyph glyph-name="two" unicode="2" horiz-adv-x="650" 
d="M469 0h-312c-89 0 -160 74 -160 160c0 48 23 89 53 122l160 159c5 5 0 13 -7 10l-82 -58c-190 43 -167 320 33 320h246c327 0 302 -459 -28 -459h-5c64 -18 142 -5 198 33c46 -33 63 -71 63 -127c0 -71 -71 -160 -159 -160z" />
    <glyph glyph-name="three" unicode="3" horiz-adv-x="642" 
d="M159 -1c-88 0 -159 96 -159 160c0 40 5 61 15 76c38 -43 89 -53 139 -51c8 3 8 13 0 13c-40 5 -78 17 -111 50c-43 46 -54 122 -26 180c38 -43 94 -53 150 -45c8 0 5 12 0 12c-61 3 -109 21 -142 71c-63 102 5 246 134 246h231c109 0 203 -91 203 -202
c0 -97 -69 -178 -157 -198c-8 -3 -8 -13 0 -13c53 3 104 28 139 66c36 -38 51 -56 51 -144c0 -107 -114 -221 -221 -221h-246z" />
    <glyph glyph-name="four" unicode="4" horiz-adv-x="692" 
d="M323 202c-195 0 -332 121 -327 350c5 218 304 210 304 2c0 -33 46 -33 46 -2c0 88 71 159 159 159c86 0 157 -73 157 -159v-8v-3v-382c0 -89 -71 -160 -157 -160c-88 0 -159 71 -159 160v15c33 8 63 20 91 35c7 3 2 13 -5 11c-33 -11 -71 -18 -109 -18z" />
    <glyph glyph-name="five" unicode="5" horiz-adv-x="656" 
d="M471 710c87 0 158 -89 158 -158c0 -54 -17 -94 -61 -126c-57 37 -134 52 -200 32h7c329 0 353 -459 27 -459h-244c-200 0 -225 276 -35 318l82 -56c7 -3 14 4 7 9l-158 161c-32 32 -54 72 -54 121c0 86 71 158 158 158h313z" />
    <glyph glyph-name="six" unicode="6" horiz-adv-x="665" 
d="M338 710h141c89 0 158 -89 158 -158c0 -54 -15 -94 -62 -126c-39 27 -91 42 -143 39c-7 0 -7 -9 0 -12c119 -15 213 -86 210 -225c0 -103 -81 -229 -232 -229h-67c-464 0 -462 711 -5 711z" />
    <glyph glyph-name="seven" unicode="7" horiz-adv-x="624" 
d="M147 18c-77 45 -104 141 -60 218l89 155h-20c-88 0 -160 72 -160 158c0 89 72 161 160 161h294c89 0 158 -72 158 -161c0 -39 -14 -66 -34 -98l-213 -376c-42 -74 -140 -101 -214 -57z" />
    <glyph glyph-name="eight" unicode="8" horiz-adv-x="656" 
d="M444 325c-7 0 -5 -12 3 -12c52 2 101 27 138 67c32 -47 50 -87 50 -144c0 -333 -640 -331 -640 0c0 57 17 102 49 144c37 -40 87 -65 139 -67c7 0 9 12 2 12c-89 20 -158 99 -158 195c0 277 575 277 575 0c0 -96 -69 -175 -158 -195z" />
    <glyph glyph-name="nine" unicode="9" horiz-adv-x="669" 
d="M303 -2h-141c-89 0 -158 89 -158 158c0 54 15 94 62 126c39 -27 91 -42 143 -39c7 0 7 9 0 12c-119 15 -213 86 -210 225c0 103 81 229 232 229h67c464 0 462 -711 5 -711z" />
    <glyph glyph-name="colon" unicode=":" horiz-adv-x="290" 
d="M136 215c59 0 111 -50 111 -108c0 -62 -52 -108 -111 -108c-62 0 -111 46 -111 108c0 58 49 108 111 108zM136 550c59 0 111 -50 111 -108c0 -62 -52 -108 -111 -108c-62 0 -111 46 -111 108c0 58 49 108 111 108z" />
    <glyph glyph-name="semicolon" unicode=";" horiz-adv-x="290" 
d="M136 550c59 0 111 -50 111 -108c0 -62 -52 -108 -111 -108c-62 0 -111 46 -111 108c0 58 49 108 111 108zM45 -23c10 21 21 46 30 69c0 1 -1 4 -4 1l-26 -29c-13 18 -21 42 -21 66c0 63 50 112 110 112c97 0 144 -102 101 -194l-39 -91c-19 -41 -67 -59 -109 -43
c-40 20 -59 67 -42 109z" />
    <glyph glyph-name="less" unicode="&#x3c;" horiz-adv-x="372" 
d="M21 394l145 146c41 40 104 40 142 0c38 -39 38 -101 0 -140l-65 -62l-43 25c-2 2 -6 -2 -4 -5c35 -36 76 -76 112 -112c38 -38 38 -101 0 -139s-101 -38 -142 0l-145 146c-38 37 -38 103 0 141z" />
    <glyph glyph-name="equal" unicode="=" horiz-adv-x="544" 
d="M97 550h302c57 0 104 -47 104 -103c0 -47 -32 -89 -76 -99c-6 -3 -6 -7 0 -7c44 -13 76 -52 76 -99c0 -59 -47 -103 -104 -103h-302c-57 0 -101 44 -101 103c0 47 32 86 76 99c6 0 6 4 0 7c-44 10 -76 50 -76 99c0 56 44 103 101 103z" />
    <glyph glyph-name="greater" unicode="&#x3e;" horiz-adv-x="386" 
d="M325 394c38 -38 38 -104 0 -141l-145 -146c-41 -38 -104 -38 -142 0s-38 101 0 139c36 36 77 76 112 112c2 3 -2 7 -4 5l-43 -25l-65 62c-38 39 -38 101 0 140c38 40 101 40 142 0z" />
    <glyph glyph-name="question" unicode="?" horiz-adv-x="585" 
d="M170 284c2 2 2 4 2 6c-2 2 -4 4 -7 2c-25 -12 -47 -30 -62 -55c-8 62 15 130 77 165h-27c-210 0 -210 305 0 305h164c319 1 332 -410 43 -447c-2 -2 -4 -4 -4 -6s2 -4 4 -4c19 -1 37 0 54 4v-109v0c-5 -82 -73 -146 -156 -146c-86 0 -155 69 -155 156c0 54 26 101 67 129
z" />
    <glyph glyph-name="at" unicode="@" horiz-adv-x="879" 
d="M428 709c233 0 419 -186 419 -419c0 -134 -58 -257 -204 -280c-87 -13 -182 10 -208 106c0 6 -10 4 -10 0c3 -39 22 -77 52 -103c-16 -3 -33 -3 -49 -3c-154 0 -283 125 -283 280s129 283 283 283c158 0 282 -128 282 -285v-83c0 -19 17 -17 20 -3c9 29 14 59 14 88
c0 174 -143 315 -316 315c-172 0 -314 -141 -314 -315c0 -200 187 -353 379 -309c69 16 98 -86 9 -101c-250 -49 -493 147 -493 410c0 233 187 419 419 419z" />
    <glyph glyph-name="A" unicode="A" horiz-adv-x="728" 
d="M437 220l-173 -169c-62 -62 -163 -62 -225 0c-61 61 -61 159 0 221l380 385c49 57 134 72 199 33c49 -25 80 -77 80 -137v-395c0 -87 -78 -157 -158 -157c-82 0 -137 50 -154 117l61 94c3 8 -5 14 -10 8z" />
    <glyph glyph-name="B" unicode="B" horiz-adv-x="656" 
d="M450 313c-7 -2 -7 -12 0 -12c55 2 104 25 140 64c33 -36 52 -54 52 -145c0 -105 -116 -219 -222 -219h-264c-85 0 -157 75 -157 161v391c0 89 70 158 157 158h251c108 0 201 -88 201 -202c0 -95 -69 -175 -158 -196z" />
    <glyph glyph-name="C" unicode="C" horiz-adv-x="693" 
d="M354 711h140c93 0 169 -80 169 -170c0 -94 -76 -169 -169 -169c-50 0 -89 23 -119 23c-21 0 -39 -18 -39 -39c0 -20 18 -36 39 -36c30 0 69 23 119 23c93 0 169 -80 169 -174c0 -90 -76 -169 -169 -169h-145c-192 0 -349 167 -349 356c0 198 159 352 354 355z" />
    <glyph glyph-name="D" unicode="D" horiz-adv-x="693" 
d="M306 1h-144c-90 0 -162 69 -162 156v395c0 87 69 160 159 160h154c195 0 350 -160 350 -355c0 -197 -160 -356 -357 -356zM324 320c23 0 39 16 39 36c0 21 -16 39 -39 39h-21v-75h21z" />
    <glyph glyph-name="E" unicode="E" horiz-adv-x="606" 
d="M0 550c0 89 67 161 161 161h261c126 0 196 -144 131 -245c-32 -52 -79 -70 -139 -72c-7 0 -7 -10 0 -13c55 -7 109 5 149 47c27 -59 17 -136 -27 -180c-30 -33 -70 -45 -112 -50c-7 0 -7 -12 0 -12c52 -5 104 5 141 49c10 -17 15 -35 15 -77c0 -62 -47 -158 -158 -158
h-263c-89 0 -159 72 -159 158v392z" />
    <glyph glyph-name="F" unicode="F" horiz-adv-x="592" 
d="M-1 552c0 102 55 159 156 159h263c87 0 158 -72 158 -159c0 -69 -47 -133 -114 -153c-14 -3 -32 -5 -49 -5c-8 -3 -8 -13 0 -13c35 -5 69 -2 102 10c7 -17 12 -39 12 -62c0 -86 -72 -158 -159 -158h-52v-17c0 -86 -72 -158 -158 -158c-87 0 -159 72 -159 158v398z" />
    <glyph glyph-name="G" unicode="G" horiz-adv-x="687" 
d="M-2 358c0 199 165 352 363 352h139c88 0 160 -69 160 -153c0 -76 -46 -132 -111 -152c-6 0 -6 -3 -6 -5c0 -5 0 -5 6 -8c62 -19 108 -79 108 -151v-84c0 -80 -78 -156 -157 -156h-142c-198 0 -360 158 -360 357zM342 283c0 -7 10 -10 14 -2c17 47 48 85 93 104
c8 2 5 12 -2 12h-65c-26 0 -40 -17 -40 -42v-72z" />
    <glyph glyph-name="H" unicode="H" horiz-adv-x="713" 
d="M523 -1c-89 0 -161 71 -161 159v34c0 12 -10 22 -22 22s-22 -10 -22 -22v-34c0 -90 -70 -159 -159 -159c-87 0 -159 69 -159 159v394c0 89 72 158 159 158c89 0 159 -69 159 -158v-36c0 -11 10 -21 22 -21s22 10 22 21v36c0 87 72 158 161 158c87 0 159 -71 159 -158
v-394c0 -88 -72 -159 -159 -159z" />
    <glyph glyph-name="I" unicode="I" horiz-adv-x="351" 
d="M158 1c-88 0 -158 73 -158 160v390c0 87 70 157 158 157c91 0 161 -70 161 -157v-390c0 -87 -70 -160 -161 -160z" />
    <glyph glyph-name="J" unicode="J" horiz-adv-x="665" 
d="M474 711c90 0 161 -73 161 -160c0 -83 2 -169 -1 -252c0 -195 -145 -298 -318 -306c-173 8 -326 96 -318 304c2 88 70 158 158 163c87 3 142 -52 152 -125c0 -5 8 -2 8 0v216c0 87 70 160 158 160z" />
    <glyph glyph-name="K" unicode="K" horiz-adv-x="735" 
d="M268 498l167 167c63 62 163 62 224 0c63 -62 63 -162 0 -225l-79 -81l89 -89c63 -63 63 -163 0 -225c-61 -62 -161 -62 -224 0l-89 89l-73 -76c-35 -38 -74 -58 -126 -58c-87 0 -157 70 -157 157v396c0 89 70 159 157 159c79 0 141 -52 159 -124l-58 -83
c-2 -5 5 -12 10 -7z" />
    <glyph glyph-name="L" unicode="L" horiz-adv-x="529" 
d="M162 0c-93 0 -165 70 -162 162v391c0 87 71 159 159 159c89 0 160 -72 160 -159l-2 -233h35c208 0 208 -320 0 -320h-190z" />
    <glyph glyph-name="M" unicode="M" horiz-adv-x="1129" 
d="M832 218l-172 -172c-87 -88 -235 -42 -265 72l57 91c6 6 -3 12 -9 9l-169 -172c-63 -64 -164 -64 -226 0c-65 63 -65 166 0 229l389 391c63 63 163 63 226 0c32 -32 47 -73 47 -115l107 109c32 33 74 54 121 54c89 0 161 -74 161 -160v-395c0 -89 -72 -161 -161 -161
c-74 0 -139 51 -154 120l59 91c3 6 -5 12 -11 9z" />
    <glyph glyph-name="N" unicode="N" horiz-adv-x="740" 
d="M710 158c0 -154 -181 -202 -271 -111c-59 57 -116 111 -172 170c-3 6 -12 -3 -9 -10l57 -88c-15 -69 -80 -121 -155 -121c-88 0 -160 70 -160 160v394c0 87 72 160 160 160c48 0 92 -26 122 -56l163 -160c3 -6 12 0 9 6l-59 86c15 68 80 124 154 124
c89 0 161 -73 161 -160v-394z" />
    <glyph glyph-name="O" unicode="O" 
d="M360 720c201 0 365 -164 365 -364c0 -201 -164 -362 -365 -362c-198 0 -363 161 -363 362c0 200 165 364 363 364zM360 394c-18 0 -36 -15 -36 -38c0 -21 18 -39 36 -39c21 0 39 18 39 39c0 23 -18 38 -39 38z" />
    <glyph glyph-name="P" unicode="P" horiz-adv-x="665" 
d="M166 -7c-93 0 -166 72 -166 163v392c0 89 73 162 166 162h197c159 0 284 -127 284 -285c0 -159 -132 -289 -292 -284l-18 98c-3 8 -10 6 -10 -2v-81c0 -88 -73 -163 -161 -163zM342 462c-5 0 -10 0 -15 -2v-69c5 -3 10 -5 15 -5c21 0 39 18 39 39s-18 37 -39 37z" />
    <glyph glyph-name="Q" unicode="Q" horiz-adv-x="744" 
d="M356 715c199 0 361 -162 361 -360c0 -26 -2 -50 -8 -76l-81 50c-3 2 -3 0 -3 0l61 -60c127 -152 -72 -370 -225 -224l-50 49c-2 3 -7 0 -5 -5l50 -78c-32 -11 -65 -13 -100 -13c-197 0 -359 158 -359 357c0 198 162 360 359 360zM356 394c-21 0 -39 -19 -39 -39
c0 -21 18 -37 39 -37c22 0 40 16 40 37c0 20 -18 39 -40 39z" />
    <glyph glyph-name="R" unicode="R" horiz-adv-x="699" 
d="M158 -2c-86 0 -159 73 -159 162v392c0 88 73 158 162 158h224c157 0 284 -127 284 -284c0 -98 -46 -184 -122 -237c-5 -3 0 -13 6 -10c33 15 64 36 90 66c45 -64 37 -148 -20 -205s-165 -68 -219 5l-86 102c-5 -84 -73 -149 -160 -149zM336 458c-8 0 -13 -2 -18 -5v-68
c5 -3 10 -3 18 -3c21 0 36 16 36 37s-15 39 -36 39z" />
    <glyph glyph-name="S" unicode="S" horiz-adv-x="665" 
d="M635 553c0 -52 -24 -96 -71 -120c-33 19 -72 29 -112 32c-8 0 -11 -11 -3 -13c267 -61 244 -453 -73 -453h-219c-85 0 -159 89 -159 160c0 54 19 94 63 126c39 -26 91 -39 138 -39c8 0 10 10 2 13c-28 2 -57 13 -83 26c-196 103 -151 429 138 426h217
c89 0 162 -70 162 -158z" />
    <glyph glyph-name="T" unicode="T" horiz-adv-x="646" 
d="M155 710h315c89 0 161 -73 161 -161c0 -85 -69 -158 -158 -158l1 -233c0 -89 -73 -162 -161 -162c-86 0 -158 73 -158 162v233c-89 0 -158 73 -158 158c0 88 69 161 158 161z" />
    <glyph glyph-name="U" unicode="U" horiz-adv-x="710" 
d="M341 -7c-187 0 -341 155 -341 341v215c0 88 72 161 161 161c88 0 158 -73 158 -161v-196c0 -12 9 -25 22 -25c12 0 22 13 22 25v196c0 88 72 161 161 161c85 0 158 -73 158 -161v-215c0 -186 -155 -341 -341 -341z" />
    <glyph glyph-name="V" unicode="V" horiz-adv-x="726" 
d="M262 491l174 173c60 63 161 63 224 0s63 -164 0 -224l-382 -385c-48 -57 -133 -73 -199 -35c-47 29 -79 79 -79 139v395c0 88 79 158 158 158c82 0 136 -48 155 -117l-60 -95c-7 -6 3 -13 9 -9z" />
    <glyph glyph-name="W" unicode="W" horiz-adv-x="1113" 
d="M265 494l170 170c89 89 237 44 266 -72l-57 -89c-7 -6 3 -12 9 -9l171 170c60 63 161 63 224 0c60 -60 60 -164 0 -227l-388 -388c-64 -64 -165 -64 -225 0c-31 31 -47 72 -47 113l-107 -107c-32 -35 -73 -57 -120 -57c-89 0 -161 73 -161 161v395c0 88 72 161 161 161
c72 0 135 -54 151 -123l-57 -89c-3 -6 4 -12 10 -9z" />
    <glyph glyph-name="X" unicode="X" horiz-adv-x="717" 
d="M345 586l80 80c60 63 156 63 216 0c61 -61 61 -162 0 -225l-76 -80l85 -90c60 -64 60 -165 0 -225c-61 -64 -157 -64 -217 0l-88 90l-88 -90c-60 -64 -156 -64 -217 0c-60 60 -60 161 0 225l85 90l-76 80c-61 63 -61 164 0 225c60 63 159 63 216 0z" />
    <glyph glyph-name="Y" unicode="Y" horiz-adv-x="699" 
d="M336 586l77 80c61 63 160 63 220 0c60 -61 60 -162 0 -225l-137 -140v-140c0 -88 -72 -159 -160 -159c-87 0 -159 71 -159 159v140l-137 140c-60 63 -60 164 0 225c60 63 157 63 217 0z" />
    <glyph glyph-name="Z" unicode="Z" horiz-adv-x="675" 
d="M484 711c156 0 206 -181 112 -275c-54 -55 -112 -112 -170 -170c-3 -5 3 -14 8 -8l88 58c72 -17 124 -74 124 -157c0 -79 -72 -159 -159 -159h-332c-88 0 -162 71 -162 159c0 50 24 91 57 121l159 162c6 5 -2 14 -8 11l-82 -58c-71 17 -124 80 -124 157
c0 87 72 159 160 159h329z" />
    <glyph glyph-name="bracketleft" unicode="[" horiz-adv-x="296" 
d="M220 644v-589c65 -4 105 -54 105 -110c0 -61 -46 -110 -116 -110h-99c-61 0 -110 46 -110 115v801c0 70 49 116 110 116h99c70 0 116 -50 116 -112c0 -56 -40 -105 -105 -111z" />
    <glyph glyph-name="backslash" unicode="\" horiz-adv-x="426" 
d="M402 61c18 -59 -15 -119 -74 -135c-58 -18 -118 16 -136 74c-94 325 -135 458 -188 647c-16 58 18 118 76 134c58 18 119 -16 134 -74c29 -101 157 -539 188 -646z" />
    <glyph glyph-name="bracketright" unicode="]" horiz-adv-x="279" 
d="M22 58v589c-65 4 -105 54 -105 110c0 61 46 110 116 110h99c61 0 110 -46 110 -115v-801c0 -70 -49 -116 -110 -116h-99c-70 0 -116 50 -116 112c0 56 40 105 105 111z" />
    <glyph glyph-name="asciicircum" unicode="^" horiz-adv-x="577" 
d="M330 679l139 -139c36 -36 36 -95 0 -134c-36 -35 -96 -35 -132 0l-61 61l25 41c2 5 -2 7 -4 5c-35 -34 -73 -73 -107 -107c-38 -35 -96 -35 -132 0c-38 39 -38 98 0 134l139 139c37 35 98 35 133 0z" />
    <glyph glyph-name="underscore" unicode="_" horiz-adv-x="589" 
d="M105 0h356c61 0 109 -47 109 -107c0 -59 -48 -106 -109 -106h-356c-61 0 -108 47 -108 106c0 60 47 107 108 107z" />
    <glyph glyph-name="grave" unicode="`" horiz-adv-x="416" 
d="M136 742l161 -29c56 -10 91 -60 82 -115c-10 -53 -61 -88 -116 -78l-161 29c-55 10 -90 61 -81 114c10 54 60 89 115 79z" />
    <glyph glyph-name="a" unicode="a" horiz-adv-x="728" 
d="M260 220c-5 6 -13 0 -10 -8l61 -94c-17 -67 -72 -117 -154 -117c-80 0 -158 70 -158 157v395c0 60 31 112 80 137c65 39 150 24 199 -33l380 -385c61 -62 61 -160 0 -221c-62 -62 -163 -62 -225 0z" />
    <glyph glyph-name="b" unicode="b" horiz-adv-x="656" 
d="M450 313c-7 -2 -7 -12 0 -12c55 2 104 25 140 64c33 -36 52 -54 52 -145c0 -105 -116 -219 -222 -219h-264c-85 0 -157 75 -157 161v391c0 89 70 158 157 158h251c108 0 201 -88 201 -202c0 -95 -69 -175 -158 -196z" />
    <glyph glyph-name="c" unicode="c" horiz-adv-x="693" 
d="M354 711h140c93 0 169 -80 169 -170c0 -94 -76 -169 -169 -169c-50 0 -89 23 -119 23c-21 0 -39 -18 -39 -39c0 -20 18 -36 39 -36c30 0 69 23 119 23c93 0 169 -80 169 -174c0 -90 -76 -169 -169 -169h-145c-192 0 -349 167 -349 356c0 198 159 352 354 355z" />
    <glyph glyph-name="d" unicode="d" horiz-adv-x="693" 
d="M306 1h-144c-90 0 -162 69 -162 156v395c0 87 69 160 159 160h154c195 0 350 -160 350 -355c0 -197 -160 -356 -357 -356zM324 320c23 0 39 16 39 36c0 21 -16 39 -39 39h-21v-75h21z" />
    <glyph glyph-name="e" unicode="e" horiz-adv-x="603" 
d="M0 550c0 89 67 161 161 161h261c126 0 196 -144 131 -245c-32 -52 -79 -70 -139 -72c-7 0 -7 -10 0 -13c55 -7 109 5 149 47c27 -59 17 -136 -27 -180c-30 -33 -70 -45 -112 -50c-7 0 -7 -12 0 -12c52 -5 104 5 141 49c10 -17 15 -35 15 -77c0 -62 -47 -158 -158 -158
h-263c-89 0 -159 72 -159 158v392z" />
    <glyph glyph-name="f" unicode="f" horiz-adv-x="592" 
d="M-1 552c0 102 55 159 156 159h263c87 0 158 -72 158 -159c0 -69 -47 -133 -114 -153c-14 -3 -32 -5 -49 -5c-8 -3 -8 -13 0 -13c35 -5 69 -2 102 10c7 -17 12 -39 12 -62c0 -86 -72 -158 -159 -158h-52v-17c0 -86 -72 -158 -158 -158c-87 0 -159 72 -159 158v398z" />
    <glyph glyph-name="g" unicode="g" horiz-adv-x="687" 
d="M-2 358c0 199 165 352 363 352h139c88 0 160 -69 160 -153c0 -76 -46 -132 -111 -152c-6 0 -6 -3 -6 -5c0 -5 0 -5 6 -8c62 -19 108 -79 108 -151v-84c0 -80 -78 -156 -157 -156h-142c-198 0 -360 158 -360 357zM342 283c0 -7 10 -10 14 -2c17 47 48 85 93 104
c8 2 5 12 -2 12h-65c-26 0 -40 -17 -40 -42v-72z" />
    <glyph glyph-name="h" unicode="h" horiz-adv-x="713" 
d="M523 -1c-89 0 -161 71 -161 159v34c0 12 -10 22 -22 22s-22 -10 -22 -22v-34c0 -90 -70 -159 -159 -159c-87 0 -159 69 -159 159v394c0 89 72 158 159 158c89 0 159 -69 159 -158v-36c0 -11 10 -21 22 -21s22 10 22 21v36c0 87 72 158 161 158c87 0 159 -71 159 -158
v-394c0 -88 -72 -159 -159 -159z" />
    <glyph glyph-name="i" unicode="i" horiz-adv-x="351" 
d="M158 1c-88 0 -158 73 -158 160v390c0 87 70 157 158 157c91 0 161 -70 161 -157v-390c0 -87 -70 -160 -161 -160z" />
    <glyph glyph-name="j" unicode="j" horiz-adv-x="665" 
d="M474 711c90 0 161 -73 161 -160c0 -83 2 -169 -1 -252c0 -195 -145 -298 -318 -306c-173 8 -326 96 -318 304c2 88 70 158 158 163c87 3 142 -52 152 -125c0 -5 8 -2 8 0v216c0 87 70 160 158 160z" />
    <glyph glyph-name="k" unicode="k" horiz-adv-x="735" 
d="M268 498l167 167c63 62 163 62 224 0c63 -62 63 -162 0 -225l-79 -81l89 -89c63 -63 63 -163 0 -225c-61 -62 -161 -62 -224 0l-89 89l-73 -76c-35 -38 -74 -58 -126 -58c-87 0 -157 70 -157 157v396c0 89 70 159 157 159c79 0 141 -52 159 -124l-58 -83
c-2 -5 5 -12 10 -7z" />
    <glyph glyph-name="l" unicode="l" horiz-adv-x="529" 
d="M162 0c-93 0 -165 70 -162 162v391c0 87 71 159 159 159c89 0 160 -72 160 -159l-2 -233h35c208 0 208 -320 0 -320h-190z" />
    <glyph glyph-name="m" unicode="m" horiz-adv-x="1129" 
d="M266 218c-6 3 -14 -3 -11 -9l59 -91c-15 -69 -80 -120 -154 -120c-89 0 -161 72 -161 161v395c0 86 72 160 161 160c47 0 89 -21 121 -54l107 -109c0 42 15 83 47 115c63 63 163 63 226 0l389 -391c65 -63 65 -166 0 -229c-62 -64 -163 -64 -226 0l-169 172
c-6 3 -15 -3 -9 -9l57 -91c-30 -114 -178 -160 -265 -72z" />
    <glyph glyph-name="n" unicode="n" horiz-adv-x="740" 
d="M710 158c0 -154 -181 -202 -271 -111c-59 57 -116 111 -172 170c-3 6 -12 -3 -9 -10l57 -88c-15 -69 -80 -121 -155 -121c-88 0 -160 70 -160 160v394c0 87 72 160 160 160c48 0 92 -26 122 -56l163 -160c3 -6 12 0 9 6l-59 86c15 68 80 124 154 124
c89 0 161 -73 161 -160v-394z" />
    <glyph glyph-name="o" unicode="o" 
d="M360 720c201 0 365 -164 365 -364c0 -201 -164 -362 -365 -362c-198 0 -363 161 -363 362c0 200 165 364 363 364zM360 394c-18 0 -36 -15 -36 -38c0 -21 18 -39 36 -39c21 0 39 18 39 39c0 23 -18 38 -39 38z" />
    <glyph glyph-name="p" unicode="p" horiz-adv-x="665" 
d="M166 -7c-93 0 -166 72 -166 163v392c0 89 73 162 166 162h197c159 0 284 -127 284 -285c0 -159 -132 -289 -292 -284l-18 98c-3 8 -10 6 -10 -2v-81c0 -88 -73 -163 -161 -163zM342 462c-5 0 -10 0 -15 -2v-69c5 -3 10 -5 15 -5c21 0 39 18 39 39s-18 37 -39 37z" />
    <glyph glyph-name="q" unicode="q" horiz-adv-x="744" 
d="M356 715c199 0 361 -162 361 -360c0 -26 -2 -50 -8 -76l-81 50c-3 2 -3 0 -3 0l61 -60c127 -152 -72 -370 -225 -224l-50 49c-2 3 -7 0 -5 -5l50 -78c-32 -11 -65 -13 -100 -13c-197 0 -359 158 -359 357c0 198 162 360 359 360zM356 394c-21 0 -39 -19 -39 -39
c0 -21 18 -37 39 -37c22 0 40 16 40 37c0 20 -18 39 -40 39z" />
    <glyph glyph-name="r" unicode="r" horiz-adv-x="699" 
d="M158 -2c-86 0 -159 73 -159 162v392c0 88 73 158 162 158h224c157 0 284 -127 284 -284c0 -98 -46 -184 -122 -237c-5 -3 0 -13 6 -10c33 15 64 36 90 66c45 -64 37 -148 -20 -205s-165 -68 -219 5l-86 102c-5 -84 -73 -149 -160 -149zM336 458c-8 0 -13 -2 -18 -5v-68
c5 -3 10 -3 18 -3c21 0 36 16 36 37s-15 39 -36 39z" />
    <glyph glyph-name="s" unicode="s" horiz-adv-x="665" 
d="M635 553c0 -52 -24 -96 -71 -120c-33 19 -72 29 -112 32c-8 0 -11 -11 -3 -13c267 -61 244 -453 -73 -453h-219c-85 0 -159 89 -159 160c0 54 19 94 63 126c39 -26 91 -39 138 -39c8 0 10 10 2 13c-28 2 -57 13 -83 26c-196 103 -151 429 138 426h217
c89 0 162 -70 162 -158z" />
    <glyph glyph-name="t" unicode="t" horiz-adv-x="646" 
d="M155 710h315c89 0 161 -73 161 -161c0 -85 -69 -158 -158 -158l1 -233c0 -89 -73 -162 -161 -162c-86 0 -158 73 -158 162v233c-89 0 -158 73 -158 158c0 88 69 161 158 161z" />
    <glyph glyph-name="u" unicode="u" horiz-adv-x="710" 
d="M341 -7c-187 0 -341 155 -341 341v215c0 88 72 161 161 161c88 0 158 -73 158 -161v-196c0 -12 9 -25 22 -25c12 0 22 13 22 25v196c0 88 72 161 161 161c85 0 158 -73 158 -161v-215c0 -186 -155 -341 -341 -341z" />
    <glyph glyph-name="v" unicode="v" horiz-adv-x="731" 
d="M440 491c6 -4 16 3 9 9l-60 95c19 69 73 117 155 117c79 0 158 -70 158 -158v-395c0 -60 -32 -110 -79 -139c-66 -38 -151 -22 -199 35l-382 385c-63 60 -63 161 0 224s164 63 224 0z" />
    <glyph glyph-name="w" unicode="w" horiz-adv-x="1118" 
d="M823 494c6 -3 13 3 10 9l-57 89c16 69 79 123 151 123c89 0 161 -73 161 -161v-395c0 -88 -72 -161 -161 -161c-47 0 -88 22 -120 57l-107 107c0 -41 -16 -82 -47 -113c-60 -64 -161 -64 -225 0l-388 388c-60 63 -60 167 0 227c63 63 164 63 224 0l171 -170
c6 -3 16 3 9 9l-57 89c29 116 177 161 266 72z" />
    <glyph glyph-name="x" unicode="x" horiz-adv-x="713" 
d="M345 586l80 80c60 63 156 63 216 0c61 -61 61 -162 0 -225l-76 -80l85 -90c60 -64 60 -165 0 -225c-61 -64 -157 -64 -217 0l-88 90l-88 -90c-60 -64 -156 -64 -217 0c-60 60 -60 161 0 225l85 90l-76 80c-61 63 -61 164 0 225c60 63 159 63 216 0z" />
    <glyph glyph-name="y" unicode="y" horiz-adv-x="699" 
d="M336 586l77 80c61 63 160 63 220 0c60 -61 60 -162 0 -225l-137 -140v-140c0 -88 -72 -159 -160 -159c-87 0 -159 71 -159 159v140l-137 140c-60 63 -60 164 0 225c60 63 157 63 217 0z" />
    <glyph glyph-name="z" unicode="z" horiz-adv-x="675" 
d="M484 711c156 0 206 -181 112 -275c-54 -55 -112 -112 -170 -170c-3 -5 3 -14 8 -8l88 58c72 -17 124 -74 124 -157c0 -79 -72 -159 -159 -159h-332c-88 0 -162 71 -162 159c0 50 24 91 57 121l159 162c6 5 -2 14 -8 11l-82 -58c-71 17 -124 80 -124 157
c0 87 72 159 160 159h329z" />
    <glyph glyph-name="braceleft" unicode="{" horiz-adv-x="375" 
d="M226 809c118 88 245 -52 137 -160c-39 -37 -63 -88 -66 -141c-5 -61 -12 -146 -83 -164c-4 0 -4 -4 0 -5c71 -17 78 -103 83 -162c3 -55 27 -103 66 -143c108 -106 -19 -248 -137 -160c-93 69 -144 186 -146 301c0 33 -13 53 -38 75c-30 28 -44 60 -44 92s14 65 44 90
c25 25 38 43 38 78c2 113 53 231 146 299z" />
    <glyph glyph-name="bar" unicode="|" horiz-adv-x="269" 
d="M227 651v-658c0 -61 -47 -109 -107 -109c-59 0 -106 48 -106 109v658c0 61 47 108 106 108c60 0 107 -47 107 -108z" />
    <glyph glyph-name="braceright" unicode="}" horiz-adv-x="367" 
d="M109 -143c-118 -88 -245 52 -137 160c39 37 63 104 66 157c5 61 12 146 83 164c4 0 4 4 0 5c-71 17 -78 103 -83 162c-3 55 -27 116 -66 156c-108 106 19 248 137 160c93 -69 144 -199 146 -314c0 -33 13 -53 38 -75c30 -28 44 -60 44 -92s-14 -65 -44 -90
c-25 -25 -38 -43 -38 -78c-2 -113 -53 -247 -146 -315z" />
    <glyph glyph-name="asciitilde" unicode="~" horiz-adv-x="610" 
d="M103 208c-77 20 -97 101 -70 163c6 12 11 20 18 32c35 52 97 82 164 73c40 -5 103 -43 123 -82c0 -3 3 -3 6 -3c0 0 3 0 3 3c8 61 63 94 121 79c80 -15 97 -97 70 -160c-4 -10 -11 -22 -18 -30c-35 -52 -93 -84 -164 -75c-24 3 -40 14 -59 24v0c-37 23 -64 59 -64 59
l-3 2c-3 0 -3 -2 -3 -2c-8 -60 -63 -97 -124 -83z" />
    <glyph glyph-name="Euro" unicode="&#x20ac;" horiz-adv-x="715" 
d="M506 4h-67c-147 0 -274 90 -326 218l91 19c5 0 5 7 0 7h-101v0c-61 0 -109 50 -109 111c0 59 48 108 109 108v0h101c5 0 5 7 0 7l-91 20c52 127 179 218 326 218h67c98 0 176 -78 176 -176c0 -86 -58 -158 -139 -175c-6 0 -6 -5 0 -7c81 -17 139 -89 139 -174
c0 -98 -78 -176 -176 -176z" />
    <glyph glyph-name="quotesinglbase" unicode="&#x201a;" horiz-adv-x="286" 
d="M27 92v119c0 52 43 95 98 95c51 0 94 -43 94 -95v-119c0 -54 -43 -96 -94 -96c-55 0 -98 42 -98 96z" />
    <glyph glyph-name="florin" unicode="&#x192;" horiz-adv-x="576" 
d="M400 143h3c0 -138 -94 -259 -235 -262c-83 0 -153 44 -153 132c0 50 26 95 73 118c30 -6 59 -3 86 12c6 0 3 6 0 6c-86 -21 -174 38 -174 135c0 71 50 127 118 139c3 0 3 3 3 3c0 144 106 276 259 279c85 0 162 -47 162 -141c0 -56 -36 -109 -92 -130c-23 6 -47 3 -70 -6
c-3 0 -3 -5 3 -5c79 8 159 -50 159 -139c0 -76 -62 -138 -142 -141z" />
    <glyph glyph-name="quotedblbase" unicode="&#x201e;" horiz-adv-x="477" 
d="M31 89v119c0 51 43 94 96 94c45 0 82 -31 92 -70c3 -3 8 -3 8 0c10 39 49 70 94 70c51 0 94 -43 94 -94v-119c0 -54 -43 -97 -94 -97c-45 0 -84 30 -94 69c0 5 -5 5 -8 0c-10 -39 -47 -69 -92 -69c-53 0 -96 43 -96 97z" />
    <glyph glyph-name="ellipsis" unicode="&#x2026;" horiz-adv-x="824" 
d="M147 215c59 0 111 -50 111 -108c0 -62 -52 -108 -111 -108c-62 0 -111 46 -111 108c0 58 49 108 111 108zM399 215c59 0 111 -50 111 -108c0 -62 -52 -108 -111 -108c-62 0 -111 46 -111 108c0 58 49 108 111 108zM654 215c59 0 111 -50 111 -108
c0 -62 -52 -108 -111 -108c-62 0 -111 46 -111 108c0 58 49 108 111 108z" />
    <glyph glyph-name="dagger" unicode="&#x2020;" horiz-adv-x="559" 
d="M109 552h100c3 0 3 6 0 9l-62 12v23c0 62 51 115 115 115c65 0 115 -53 115 -118v-41h38c62 0 115 -53 115 -115c0 -64 -53 -115 -115 -115h-38v-206c0 -64 -53 -114 -115 -114c-64 0 -115 50 -115 114v206h-38c-65 0 -115 51 -115 115c0 65 53 115 115 115z" />
    <glyph glyph-name="daggerdbl" unicode="&#x2021;" horiz-adv-x="555" 
d="M119 581h93c3 0 6 5 0 5l-58 15v0c0 61 49 110 110 110c62 0 111 -49 111 -110v-20h35c61 0 110 -50 110 -111s-49 -110 -110 -110h-35v-18h35c61 -3 110 -52 110 -113s-49 -107 -110 -107h-96c-3 0 -3 -6 0 -9l61 -12v0c-3 -61 -52 -110 -113 -110
c-62 0 -111 49 -108 110v21h-38c-61 0 -110 49 -107 110c0 61 49 110 110 110h35v18h-38c-61 0 -110 49 -110 110c3 61 52 111 113 111z" />
    <glyph glyph-name="circumflex" unicode="&#x2c6;" horiz-adv-x="514" 
d="M169 688c38 32 101 32 139 0l107 -87c99 -82 -27 -211 -115 -130l-93 84c-2 3 -7 0 -5 -3l41 -59l-73 -39c-100 -50 -188 76 -100 152z" />
    <glyph glyph-name="perthousand" unicode="&#x2030;" horiz-adv-x="919" 
d="M43 225l99 124h2c44 0 85 17 114 48c2 4 -4 9 -6 6c-26 -21 -59 -34 -95 -34c-85 0 -155 69 -155 156c0 84 70 151 155 151c72 0 134 -52 149 -122l52 65c52 68 136 86 201 29c57 -49 59 -132 13 -192l-96 -121h-7c-52 0 -99 -25 -127 -64c-1 -3 3 -8 5 -3
c29 26 67 44 111 44c55 0 102 -29 129 -73c28 47 79 78 137 78c88 0 160 -72 160 -160s-72 -160 -160 -160c-59 0 -110 31 -138 78c-26 -42 -73 -70 -128 -70c-74 0 -136 50 -152 119c-17 -26 -38 -49 -59 -75c-47 -58 -135 -62 -191 -12c-54 48 -59 130 -13 188z" />
    <glyph glyph-name="guilsinglleft" unicode="&#x2039;" horiz-adv-x="368" 
d="M28 395l140 140c37 37 97 37 133 0c38 -37 38 -97 0 -133l-61 -60l-40 23c-4 3 -7 -1 -4 -5c34 -32 72 -71 105 -105c38 -36 38 -96 0 -133c-36 -36 -96 -36 -133 0l-140 139c-36 37 -36 98 0 134z" />
    <glyph glyph-name="OE" unicode="&#x152;" horiz-adv-x="1217" 
d="M360 720c201 0 365 -164 365 -364c0 -201 -164 -362 -365 -362c-198 0 -363 161 -363 362c0 200 165 364 363 364zM360 394c-18 0 -36 -15 -36 -38c0 -21 18 -39 36 -39c21 0 39 18 39 39c0 23 -18 38 -39 38zM613 550c0 89 67 161 161 161h261c126 0 196 -144 131 -245
c-32 -52 -79 -70 -139 -72c-7 0 -7 -10 0 -13c55 -7 109 5 149 47c27 -59 17 -136 -27 -180c-30 -33 -70 -45 -112 -50c-7 0 -7 -12 0 -12c52 -5 104 5 141 49c10 -17 15 -35 15 -77c0 -62 -47 -158 -158 -158h-263c-89 0 -159 72 -159 158v392z" />
    <glyph glyph-name="quoteleft" unicode="&#x2018;" horiz-adv-x="310" 
d="M226 597c-10 -21 -21 -46 -30 -69c0 -1 1 -4 4 -1l26 29c13 -18 21 -42 21 -66c0 -63 -50 -112 -110 -112c-97 0 -144 102 -101 194l39 91c19 41 67 59 109 43c40 -20 59 -67 42 -109z" />
    <glyph glyph-name="quoteright" unicode="&#x2019;" horiz-adv-x="310" 
d="M48 493c10 21 21 46 30 69c0 1 -1 4 -4 1l-26 -29c-13 18 -21 42 -21 66c0 63 50 112 110 112c97 0 144 -102 101 -194l-39 -91c-19 -41 -67 -59 -109 -43c-40 20 -59 67 -42 109z" />
    <glyph glyph-name="quotedblleft" unicode="&#x201c;" horiz-adv-x="569" 
d="M226 597c-10 -21 -21 -46 -30 -69c0 -1 1 -4 4 -1l26 29c13 -18 21 -42 21 -66c0 -63 -50 -112 -110 -112c-97 0 -144 102 -101 194l39 91c19 41 67 59 109 43c40 -20 59 -67 42 -109zM489 597c-10 -21 -21 -46 -30 -69c0 -1 1 -4 4 -1l26 29c13 -18 21 -42 21 -66
c0 -63 -50 -112 -110 -112c-97 0 -144 102 -101 194l39 91c19 41 67 59 109 43c40 -20 59 -67 42 -109z" />
    <glyph glyph-name="quotedblright" unicode="&#x201d;" horiz-adv-x="565" 
d="M48 493c10 21 21 46 30 69c0 1 -1 4 -4 1l-26 -29c-13 18 -21 42 -21 66c0 63 50 112 110 112c97 0 144 -102 101 -194l-39 -91c-19 -41 -67 -59 -109 -43c-40 20 -59 67 -42 109zM306 493c10 21 21 46 30 69c0 1 -1 4 -4 1l-26 -29c-13 18 -21 42 -21 66
c0 63 50 112 110 112c97 0 144 -102 101 -194l-39 -91c-19 -41 -67 -59 -109 -43c-40 20 -59 67 -42 109z" />
    <glyph glyph-name="bullet" unicode="&#x2022;" horiz-adv-x="372" 
d="M24 329c0 75 58 140 140 140c75 0 140 -65 140 -140c0 -82 -65 -140 -140 -140c-82 0 -140 58 -140 140z" />
    <glyph glyph-name="endash" unicode="&#x2013;" horiz-adv-x="666" 
d="M140 419h345c61 0 109 -47 109 -107c0 -59 -48 -106 -109 -106h-345c-61 0 -108 47 -108 106c0 60 47 107 108 107z" />
    <glyph glyph-name="emdash" unicode="&#x2014;" horiz-adv-x="955" 
d="M150 417h604c61 0 109 -47 109 -107c0 -59 -48 -106 -109 -106h-604c-61 0 -108 47 -108 106c0 60 47 107 108 107z" />
    <glyph glyph-name="tilde" unicode="&#x2dc;" horiz-adv-x="510" 
d="M101 499c-60 15 -75 77 -54 125c4 9 8 15 14 25c26 40 74 63 126 56c30 -4 79 -33 94 -63c0 -3 3 -3 5 -3c0 0 2 0 2 3c6 47 49 72 93 60c59 -17 74 -75 54 -123c-3 -7 -9 -16 -14 -23c-27 -40 -71 -64 -126 -57c-18 2 -31 11 -45 18v0c-29 18 -50 46 -50 46l-2 1
c-2 0 -2 -1 -2 -1c-6 -47 -49 -75 -95 -64z" />
    <glyph glyph-name="trademark" unicode="&#x2122;" horiz-adv-x="899" 
d="M84 511v0c12 0 26 0 38 2c3 2 3 5 0 5c-60 -3 -117 28 -117 95c0 53 43 96 96 96h191c53 0 96 -43 96 -96c0 -67 -58 -98 -115 -95c-3 0 -3 -3 -3 -3c12 -4 24 -4 36 -4v-75c0 -62 -48 -114 -112 -114c-62 0 -110 55 -110 114v75zM416 611v-191c0 -53 46 -98 98 -96
c43 0 86 19 91 77c-19 4 -33 14 -45 28v3h2c36 -34 91 -34 127 0h2v-3c-12 -14 -26 -24 -43 -28c3 -58 46 -77 89 -77c55 -2 100 43 100 96v191c0 53 -43 96 -93 98c-24 0 -50 -12 -67 -29l-50 -50l-53 50c-14 17 -41 29 -64 29c-51 -2 -94 -45 -94 -98z" />
    <glyph glyph-name="guilsinglright" unicode="&#x203a;" horiz-adv-x="367" 
d="M314 395c36 -36 36 -97 0 -134l-140 -139c-37 -36 -97 -36 -133 0c-38 37 -38 97 0 133c33 34 71 73 105 105c3 4 0 8 -4 5l-40 -23l-61 60c-38 36 -38 96 0 133c36 37 96 37 133 0z" />
    <glyph glyph-name="oe" unicode="&#x153;" horiz-adv-x="1216" 
d="M360 720c201 0 365 -164 365 -364c0 -201 -164 -362 -365 -362c-198 0 -363 161 -363 362c0 200 165 364 363 364zM360 394c-18 0 -36 -15 -36 -38c0 -21 18 -39 36 -39c21 0 39 18 39 39c0 23 -18 38 -39 38zM613 550c0 89 67 161 161 161h261c126 0 196 -144 131 -245
c-32 -52 -79 -70 -139 -72c-7 0 -7 -10 0 -13c55 -7 109 5 149 47c27 -59 17 -136 -27 -180c-30 -33 -70 -45 -112 -50c-7 0 -7 -12 0 -12c52 -5 104 5 141 49c10 -17 15 -35 15 -77c0 -62 -47 -158 -158 -158h-263c-89 0 -159 72 -159 158v392z" />
    <glyph glyph-name="exclamdown" unicode="&#xa1;" horiz-adv-x="341" 
d="M28 473c-17 24 -26 54 -26 86c0 87 69 156 156 156c86 0 156 -69 156 -156c0 -67 -44 -125 -106 -148c-1 0 -3 -2 -1 -6c0 -1 1 -3 5 -3c32 5 64 22 88 47c10 -19 14 -42 14 -64v-231c0 -87 -70 -156 -156 -156c-87 0 -158 69 -158 156v231c0 32 11 62 28 88z" />
    <glyph glyph-name="cent" unicode="&#xa2;" horiz-adv-x="565" 
d="M187 9v10c-106 41 -182 145 -182 264c0 111 66 208 159 253l23 -115v142c0 58 46 102 101 102c57 0 102 -44 102 -102v0c78 0 142 -62 142 -140c0 -69 -49 -124 -113 -136c-6 0 -9 -9 0 -9c64 -13 113 -68 113 -135c0 -72 -53 -131 -122 -141l-20 113v-113
c0 -53 -51 -94 -102 -94c-55 0 -101 46 -101 101z" />
    <glyph glyph-name="sterling" unicode="&#xa3;" horiz-adv-x="681" 
d="M116 486c49 315 548 291 528 -31c-7 -89 -85 -167 -176 -167c-60 0 -119 29 -151 78c-2 5 -10 2 -5 -5c29 -59 92 -93 159 -93h44c73 0 132 -61 132 -131c0 -74 -59 -133 -132 -133h-384c-73 0 -132 59 -132 133c0 51 32 114 98 117l42 8c4 2 4 6 0 6l-45 7
c-51 6 -90 50 -90 101c0 62 48 110 107 110h5z" />
    <glyph glyph-name="currency" unicode="&#xa4;" horiz-adv-x="657" 
d="M577 398c33 -73 33 -157 0 -231l3 -6c42 -41 42 -106 0 -143c-37 -41 -103 -41 -144 0l-5 4c-72 -32 -157 -32 -230 0l-4 -2c-39 -41 -103 -41 -143 0c-41 38 -41 102 0 144l3 3c-31 74 -31 158 0 231l-13 12c-40 41 -40 106 0 146c39 38 103 38 145 0l12 -15
c73 32 158 32 230 0l21 20c40 42 107 42 143 0c42 -39 42 -103 0 -142z" />
    <glyph glyph-name="yen" unicode="&#xa5;" horiz-adv-x="746" 
d="M590 285c-2 -2 0 -10 3 -6c29 11 56 31 75 55c21 -19 34 -46 34 -76c0 -55 -45 -100 -102 -100h-68c-10 -91 -86 -161 -176 -161c-93 0 -169 70 -176 161h-69c-56 0 -103 45 -103 100c0 30 13 57 32 74c22 -22 49 -42 79 -53c2 -4 7 2 2 4c-74 59 -123 147 -123 250v0
c0 100 79 178 179 178c86 0 159 -61 173 -142c4 -4 8 -4 8 0c17 81 90 142 176 142c98 0 179 -78 179 -178v0c0 -103 -49 -189 -123 -248z" />
    <glyph glyph-name="brokenbar" unicode="&#xa6;" horiz-adv-x="259" 
d="M221 631v-197c0 -61 -47 -109 -107 -109c-59 0 -106 48 -106 109v197c0 61 47 108 106 108c60 0 107 -47 107 -108zM221 175v-186c0 -61 -47 -109 -107 -109c-59 0 -106 48 -106 109v186c0 61 47 108 106 108c60 0 107 -47 107 -108z" />
    <glyph glyph-name="section" unicode="&#xa7;" horiz-adv-x="644" 
d="M280 -42h-152c-148 0 -162 181 -62 233c38 18 81 18 113 2c5 -2 9 2 5 7c-47 30 -103 28 -150 -3c-28 113 11 207 92 251c39 23 98 40 143 17c4 -3 9 4 4 9c-45 31 -106 26 -150 -3c-42 160 56 280 213 280h157c146 0 162 -181 62 -230c-38 -18 -83 -21 -115 -3
c-5 3 -10 -2 -5 -6c42 -33 108 -31 150 0c24 -97 -14 -207 -94 -254c-45 -28 -96 -35 -145 -14c-2 -2 -2 -4 2 -6c40 -34 105 -29 148 0c38 -158 -54 -280 -216 -280z" />
    <glyph glyph-name="dieresis" unicode="&#xa8;" horiz-adv-x="586" 
d="M124 709c59 0 111 -50 111 -108c0 -62 -52 -108 -111 -108c-62 0 -111 46 -111 108c0 58 49 108 111 108zM428 709c59 0 111 -50 111 -108c0 -62 -52 -108 -111 -108c-62 0 -111 46 -111 108c0 58 49 108 111 108z" />
    <glyph glyph-name="copyright" unicode="&#xa9;" horiz-adv-x="787" 
d="M380 710c198 0 358 -159 358 -357c0 -196 -160 -358 -358 -358s-357 162 -357 358c0 198 159 357 357 357zM378 155h74c54 0 98 44 98 98c0 48 -34 87 -80 97c-5 0 -2 5 0 8c46 8 80 46 80 95c0 54 -44 100 -98 100h-74c-111 0 -201 -90 -201 -200
c0 -111 90 -198 201 -198z" />
    <glyph glyph-name="ordfeminine" unicode="&#xaa;" horiz-adv-x="456" 
d="M113 302h195c46 0 85 -39 85 -87c0 -47 -39 -83 -85 -83h-195c-48 0 -87 36 -87 83c0 48 39 87 87 87zM404 517v-97c0 -53 -43 -96 -98 -96c-45 0 -82 31 -93 74c0 2 -5 2 -5 0c0 -26 9 -51 22 -74h-19c-109 0 -196 87 -196 193c0 109 87 196 196 196
c106 0 193 -87 193 -196z" />
    <glyph glyph-name="guillemotleft" unicode="&#xab;" horiz-adv-x="538" 
d="M214 410l109 111l15 14c38 37 96 37 134 0c36 -37 36 -97 0 -133l-61 -60l-42 23c-2 3 -5 -1 -4 -5c34 -32 73 -71 107 -105c36 -36 36 -96 0 -133c-38 -36 -96 -36 -134 0l-15 15v0l-109 109l90 -123c-1 0 -1 -1 -4 -1c-36 -36 -96 -36 -132 0l-140 139
c-36 37 -36 98 0 134l140 140c36 37 96 37 132 0c3 0 3 -2 4 -2z" />
    <glyph glyph-name="logicalnot" unicode="&#xac;" horiz-adv-x="499" 
d="M116 453h238c57 0 103 -46 105 -105c0 -35 -1 -69 -1 -104c0 -57 -46 -105 -103 -105s-106 46 -106 103c-45 0 -91 0 -133 2c-59 0 -105 46 -105 104c0 59 48 105 105 105z" />
    <glyph glyph-name="registered" unicode="&#xae;" horiz-adv-x="787" 
d="M388 710c198 0 357 -159 357 -357c0 -196 -159 -358 -357 -358s-357 162 -357 358c0 198 159 357 357 357zM244 250c0 -57 47 -100 103 -100c57 0 100 43 100 100v103c57 0 103 46 103 103c0 56 -46 102 -103 102h-46c-103 0 -157 -69 -157 -169v-139z" />
    <glyph glyph-name="macron" unicode="&#xaf;" horiz-adv-x="472" 
d="M313 484h-197c-61 0 -109 47 -109 107c0 59 48 106 109 106h197c61 0 108 -47 108 -106c0 -60 -47 -107 -108 -107z" />
    <glyph glyph-name="degree" unicode="&#xb0;" horiz-adv-x="375" 
d="M269 673h1c26 -28 39 -64 39 -102c0 -35 -13 -71 -40 -100c-28 -29 -66 -43 -103 -43s-75 14 -103 42s-41 64 -41 101c0 36 13 73 41 103c28 28 66 42 103 42s75 -14 103 -43z" />
    <glyph glyph-name="plusminus" unicode="&#xb1;" horiz-adv-x="555" 
d="M135 238h35c-4 11 -6 22 -6 35v44h-43c-58 0 -104 46 -104 103s46 104 104 104h93c2 0 2 8 0 8l-50 13v23c0 57 48 103 104 103c57 0 103 -46 103 -103v-44h44c57 0 105 -47 105 -104s-48 -103 -105 -103h-96c-3 0 -5 -7 0 -9l52 -11v-24c0 -13 -3 -24 -6 -35h27
c59 0 105 -45 105 -103s-46 -103 -105 -103h-257c-59 0 -104 45 -104 103s45 103 104 103z" />
    <glyph glyph-name="twosuperior" unicode="&#xb2;" horiz-adv-x="422" 
d="M90 298c-87 0 -119 73 -69 143l84 113c2 4 -2 6 -4 2l-55 -42c-35 24 -51 54 -49 95c0 55 47 101 104 101h152c126 0 178 -123 111 -215c-30 17 -67 17 -97 4c-4 -2 -2 -10 4 -8c22 6 49 2 73 -8c79 -40 67 -185 -49 -185h-205z" />
    <glyph glyph-name="threesuperior" unicode="&#xb3;" horiz-adv-x="407" 
d="M277 298h-195c-45 0 -81 37 -81 83c0 18 4 37 16 51c16 -10 34 -14 52 -12c5 2 5 4 0 6c-36 6 -68 38 -68 79c0 16 4 32 14 47c14 -11 36 -13 54 -9c3 0 3 5 0 5c-40 4 -68 40 -68 81c0 44 36 81 81 81h197c126 0 138 -181 27 -199c-2 -2 -2 -4 0 -6
c117 -22 105 -207 -29 -207z" />
    <glyph glyph-name="acute" unicode="&#xb4;" horiz-adv-x="400" 
d="M267 484l-125 -21c-60 -10 -115 29 -125 88c-10 58 30 112 90 122l125 21c60 10 114 -28 124 -87s-28 -113 -89 -123z" />
    <glyph glyph-name="mu" unicode="&#xb5;" horiz-adv-x="715" 
d="M388 421c0 86 69 147 150 145c80 2 147 -63 147 -145v-280c0 -78 -64 -143 -143 -143c-64 0 -118 43 -136 102c-4 7 -6 7 -11 0c-20 -39 -74 -37 -100 -10c-5 8 -7 8 -7 0v-96c0 -81 -65 -144 -145 -144c-79 0 -143 63 -143 144v424c0 82 67 150 147 148
c82 2 150 -59 150 -145c0 -61 91 -61 91 0z" />
    <glyph glyph-name="paragraph" unicode="&#xb6;" horiz-adv-x="678" 
d="M-2 423c0 161 130 288 287 288h184c99 0 178 -82 178 -181v-529c0 -100 -79 -179 -178 -179s-178 79 -178 179v272c0 5 -8 5 -8 0l-15 -135c-150 8 -270 132 -270 285z" />
    <glyph glyph-name="periodcentered" unicode="&#xb7;" horiz-adv-x="286" 
d="M125 388c59 0 111 -50 111 -108c0 -62 -52 -108 -111 -108c-62 0 -111 46 -111 108c0 58 49 108 111 108z" />
    <glyph glyph-name="cedilla" unicode="&#xb8;" horiz-adv-x="290" 
d="M45 -29c10 21 21 46 30 69c0 1 -1 4 -4 1l-26 -29c-13 18 -21 42 -21 66c0 63 50 112 110 112c97 0 144 -102 101 -194l-39 -91c-19 -41 -67 -59 -109 -43c-40 20 -59 67 -42 109z" />
    <glyph glyph-name="onesuperior" unicode="&#xb9;" horiz-adv-x="351" 
d="M179 258c-69 0 -124 56 -124 124v121c24 -4 49 -2 69 13c2 0 2 6 -2 4c-21 -4 -41 -2 -59 4c-39 12 -67 50 -67 95c0 55 43 99 97 99h86c69 0 124 -56 124 -123v-213c0 -68 -55 -124 -124 -124z" />
    <glyph glyph-name="ordmasculine" unicode="&#xba;" horiz-adv-x="467" 
d="M428 501c0 -114 -91 -205 -205 -205c-115 0 -206 91 -206 205c0 112 91 203 206 203c114 0 205 -91 205 -203z" />
    <glyph glyph-name="guillemotright" unicode="&#xbb;" horiz-adv-x="528" 
d="M175 521l109 -111l-90 123c1 0 1 2 4 2c36 37 96 37 132 0l140 -140c36 -36 36 -97 0 -134l-140 -139c-36 -36 -96 -36 -132 0c-3 0 -3 1 -4 1l90 123l-109 -109v0l-15 -15c-38 -36 -96 -36 -134 0c-36 37 -36 97 0 133c34 34 73 73 107 105c1 4 -2 8 -4 5l-42 -23
l-61 60c-36 36 -36 96 0 133c38 37 96 37 134 0z" />
    <glyph glyph-name="onequarter" unicode="&#xbc;" horiz-adv-x="674" 
d="M19 172l101 123c32 -13 69 -10 103 8c2 2 0 7 -6 5c-73 -23 -158 29 -158 114v81c22 -6 48 -3 68 10c2 3 0 8 -3 6c-20 -3 -40 0 -58 4c-36 13 -65 50 -65 93c0 52 43 95 96 95h82c68 0 124 -53 124 -121v-74l132 159c38 46 105 51 150 13c45 -37 51 -105 12 -150
l-151 -188c-24 47 -73 65 -119 50c-2 -3 -2 -7 2 -7c51 9 99 -25 111 -80h6c9 58 59 82 104 80c45 -3 93 -38 93 -100v-101v-99c0 -56 -48 -102 -100 -102h-8h-8c-50 0 -92 34 -108 80c29 3 54 10 79 24c2 0 2 5 -4 5c-80 -19 -162 3 -207 60l-105 -125
c-38 -46 -106 -53 -150 -15c-46 39 -53 107 -13 152z" />
    <glyph glyph-name="onehalf" unicode="&#xbd;" horiz-adv-x="691" 
d="M20 172l100 123c33 -13 71 -10 102 8c3 2 0 7 -2 5c-29 -8 -62 -8 -90 7c-42 19 -69 61 -69 107v81c22 -6 46 -3 67 10c2 3 2 8 -3 6c-20 -3 -37 0 -54 4c-41 13 -68 50 -68 93c0 52 42 95 94 95h84c68 0 121 -53 121 -121v-74l134 159c37 46 105 51 150 13
c45 -37 50 -105 13 -150l-105 -131h-114c-44 0 -78 -27 -92 -65c-3 -5 5 -8 7 -3c18 32 51 54 88 54h141c119 0 170 -118 105 -203c-27 15 -60 15 -88 2c-7 -2 -5 -7 0 -7c22 5 48 3 70 -7c76 -39 63 -174 -44 -174h-194c-83 0 -112 67 -66 133l79 108c2 2 0 5 -3 2l-52 -40
s-2 0 -2 3l-146 -175c-37 -46 -105 -53 -151 -15c-44 39 -49 107 -12 152z" />
    <glyph glyph-name="threequarters" unicode="&#xbe;" horiz-adv-x="702" 
d="M226 306h-147c-45 0 -82 37 -82 82c0 18 5 35 17 51c16 -13 35 -16 53 -13c3 0 3 4 0 4c-37 5 -70 39 -70 77c0 18 5 35 15 48c13 -11 37 -13 53 -8c2 0 2 2 0 5c-38 3 -68 37 -68 77c0 45 37 82 82 82h147c123 0 135 -176 26 -196c-2 0 -2 -6 0 -6c18 -2 32 -10 43 -19
l159 191c37 45 106 52 151 12c45 -37 52 -104 13 -151l-154 -187c-23 46 -72 63 -117 49c-5 0 -3 -9 2 -9c50 11 99 -22 110 -79h5c11 60 61 85 107 83c44 -4 93 -40 93 -103v-102v-99c0 -57 -49 -102 -102 -102h-7h-7c-50 0 -94 36 -109 80c27 4 54 12 76 22c5 3 5 7 0 7
c-81 -19 -163 0 -211 61l-104 -127c-37 -45 -107 -52 -151 -12c-45 37 -52 106 -12 151l93 114h86c34 0 61 12 79 32c2 3 0 8 -6 5c-14 -13 -37 -20 -63 -20z" />
    <glyph glyph-name="questiondown" unicode="&#xbf;" horiz-adv-x="585" 
d="M392 422c-2 -2 -2 -4 -2 -6c2 -2 4 -4 7 -2c25 12 47 30 62 55c8 -62 -15 -130 -77 -165h27c210 0 210 -305 0 -305h-164c-319 -1 -332 410 -43 447c2 2 4 4 4 6s-2 4 -4 4c-19 1 -37 0 -54 -4v109v0c5 82 73 146 156 146c86 0 155 -69 155 -156c0 -54 -26 -101 -67 -129
z" />
    <glyph glyph-name="zcaron" unicode="&#x17e;" horiz-adv-x="675" 
d="M484 711c156 0 206 -181 112 -275c-54 -55 -112 -112 -170 -170c-3 -5 3 -14 8 -8l88 58c72 -17 124 -74 124 -157c0 -79 -72 -159 -159 -159h-332c-88 0 -162 71 -162 159c0 50 24 91 57 121l159 162c6 5 -2 14 -8 11l-82 -58c-71 17 -124 80 -124 157
c0 87 72 159 160 159h329zM398 734c-38 -32 -102 -32 -140 0l-107 88c-100 82 27 211 115 130l94 -84c1 -3 6 0 4 3l-41 59l73 40c100 49 189 -77 100 -153z" />
    <glyph glyph-name="Ydieresis" unicode="&#x178;" horiz-adv-x="699" 
d="M413 666l-77 -80l-79 80c-60 63 -157 63 -217 0c-60 -61 -60 -162 0 -225l137 -140v-140c0 -88 72 -159 159 -159c88 0 160 71 160 159v140l137 140c60 63 60 164 0 225c-60 63 -159 63 -220 0zM197 926c59 0 111 -50 111 -108c0 -62 -52 -108 -111 -108
c-62 0 -111 46 -111 108c0 58 49 108 111 108zM501 926c59 0 111 -50 111 -108c0 -62 -52 -108 -111 -108c-62 0 -111 46 -111 108c0 58 49 108 111 108z" />
    <glyph glyph-name="Zcaron" unicode="&#x17d;" horiz-adv-x="675" 
d="M484 711c156 0 206 -181 112 -275c-54 -55 -112 -112 -170 -170c-3 -5 3 -14 8 -8l88 58c72 -17 124 -74 124 -157c0 -79 -72 -159 -159 -159h-332c-88 0 -162 71 -162 159c0 50 24 91 57 121l159 162c6 5 -2 14 -8 11l-82 -58c-71 17 -124 80 -124 157
c0 87 72 159 160 159h329zM398 733c-38 -32 -102 -32 -140 0l-107 88c-100 82 27 211 115 130l94 -84c1 -3 6 0 4 3l-41 59l73 40c100 49 189 -77 100 -153z" />
    <glyph glyph-name="Scaron" unicode="&#x160;" horiz-adv-x="665" 
d="M412 734c-38 -32 -102 -32 -140 0l-107 88c-100 82 27 211 115 130l94 -84c1 -3 6 0 4 3l-41 59l73 40c100 49 189 -77 100 -153zM635 553c0 88 -73 158 -162 158h-217c-289 3 -334 -323 -138 -426c26 -13 55 -24 83 -26c8 -3 6 -13 -2 -13c-47 0 -99 13 -138 39
c-44 -32 -63 -72 -63 -126c0 -71 74 -160 159 -160h219c317 0 340 392 73 453c-8 2 -5 13 3 13c40 -3 79 -13 112 -32c47 24 71 68 71 120z" />
    <glyph glyph-name="scaron" unicode="&#x161;" horiz-adv-x="665" 
d="M412 734c-38 -32 -102 -32 -140 0l-107 88c-100 82 27 211 115 130l94 -84c1 -3 6 0 4 3l-41 59l73 40c100 49 189 -77 100 -153zM635 553c0 88 -73 158 -162 158h-217c-289 3 -334 -323 -138 -426c26 -13 55 -24 83 -26c8 -3 6 -13 -2 -13c-47 0 -99 13 -138 39
c-44 -32 -63 -72 -63 -126c0 -71 74 -160 159 -160h219c317 0 340 392 73 453c-8 2 -5 13 3 13c40 -3 79 -13 112 -32c47 24 71 68 71 120z" />
    <glyph glyph-name="AE" unicode="&#xc6;" horiz-adv-x="1302" 
d="M440 220l-173 -169c-62 -62 -163 -62 -225 0c-61 61 -61 159 0 221l380 385c49 57 134 72 199 33c49 -25 80 -77 80 -137v-395c0 -87 -78 -157 -158 -157c-82 0 -137 50 -154 117l61 94c3 8 -5 14 -10 8zM703 550c0 89 67 161 161 161h261c126 0 196 -144 131 -245
c-32 -52 -79 -70 -139 -72c-7 0 -7 -10 0 -13c55 -7 109 5 149 47c27 -59 17 -136 -27 -180c-30 -33 -70 -45 -112 -50c-7 0 -7 -12 0 -12c52 -5 104 5 141 49c10 -17 15 -35 15 -77c0 -62 -47 -158 -158 -158h-263c-89 0 -159 72 -159 158v392z" />
    <glyph glyph-name="Ccedilla" unicode="&#xc7;" horiz-adv-x="693" 
d="M354 711h140c93 0 169 -80 169 -170c0 -94 -76 -169 -169 -169c-50 0 -89 23 -119 23c-21 0 -39 -18 -39 -39c0 -20 18 -36 39 -36c30 0 69 23 119 23c93 0 169 -80 169 -174c0 -90 -76 -169 -169 -169h-145c-192 0 -349 167 -349 356c0 198 159 352 354 355zM316 -29
c10 21 21 46 30 69c0 1 -1 4 -4 1l-26 -29c-13 18 -21 42 -21 66c0 63 50 112 110 112c97 0 144 -102 101 -194l-39 -91c-19 -41 -67 -59 -109 -43c-40 20 -59 67 -42 109z" />
    <glyph glyph-name="Aring" unicode="&#xc5;" horiz-adv-x="728" 
d="M437 220c5 6 13 0 10 -8l-61 -94c17 -67 72 -117 154 -117c80 0 158 70 158 157v395c0 60 -31 112 -80 137c-65 39 -150 24 -199 -33l-380 -385c-61 -62 -61 -160 0 -221c62 -62 163 -62 225 0zM645 751h2c-26 -27 -60 -39 -94 -39c-36 0 -69 12 -95 39h2
c-26 25 -39 60 -39 94c0 36 12 69 39 94v-1c25 25 58 37 93 37c34 0 68 -12 94 -37c25 -26 37 -59 37 -93s-13 -69 -39 -94z" />
    <glyph glyph-name="Adieresis" unicode="&#xc4;" horiz-adv-x="728" 
d="M406 905c59 0 111 -50 111 -108c0 -62 -52 -108 -111 -108c-62 0 -111 46 -111 108c0 58 49 108 111 108zM665 905c59 0 111 -50 111 -108c0 -62 -52 -108 -111 -108c-62 0 -111 46 -111 108c0 58 49 108 111 108zM437 220c5 6 13 0 10 -8l-61 -94
c17 -67 72 -117 154 -117c80 0 158 70 158 157v395c0 60 -31 112 -80 137c-65 39 -150 24 -199 -33l-380 -385c-61 -62 -61 -160 0 -221c62 -62 163 -62 225 0z" />
    <glyph glyph-name="Atilde" unicode="&#xc3;" horiz-adv-x="728" 
d="M437 220c5 6 13 0 10 -8l-61 -94c17 -67 72 -117 154 -117c80 0 158 70 158 157v395c0 60 -31 112 -80 137c-65 39 -150 24 -199 -33l-380 -385c-61 -62 -61 -160 0 -221c62 -62 163 -62 225 0zM429 698c-57 14 -71 72 -51 117c4 8 8 14 13 23c25 37 70 59 118 52
c28 -4 74 -31 88 -59c0 -2 3 -2 5 -2c0 0 2 0 2 2c5 44 46 68 87 56c55 -15 69 -70 51 -114c-3 -7 -9 -15 -13 -22c-26 -37 -67 -60 -119 -53c-16 2 -29 10 -42 17v0c-27 16 -47 43 -47 43l-1 1c-2 0 -2 -1 -2 -1c-6 -44 -46 -70 -89 -60z" />
    <glyph glyph-name="Acircumflex" unicode="&#xc2;" horiz-adv-x="728" 
d="M437 220c5 6 13 0 10 -8l-61 -94c17 -67 72 -117 154 -117c80 0 158 70 158 157v395c0 60 -31 112 -80 137c-65 39 -150 24 -199 -33l-380 -385c-61 -62 -61 -160 0 -221c62 -62 163 -62 225 0zM460 911c36 31 95 31 131 0l101 -82c93 -77 -26 -198 -108 -122l-88 79
c-2 3 -7 0 -5 -3l39 -55l-69 -37c-94 -47 -177 71 -94 143z" />
    <glyph glyph-name="Aacute" unicode="&#xc1;" horiz-adv-x="728" 
d="M437 220c5 6 13 0 10 -8l-61 -94c17 -67 72 -117 154 -117c80 0 158 70 158 157v395c0 60 -31 112 -80 137c-65 39 -150 24 -199 -33l-380 -385c-61 -62 -61 -160 0 -221c62 -62 163 -62 225 0zM703 734l-125 -21c-60 -10 -115 29 -125 88c-10 58 30 112 90 122l125 21
c60 10 114 -28 124 -87s-28 -113 -89 -123z" />
    <glyph glyph-name="Agrave" unicode="&#xc0;" horiz-adv-x="728" 
d="M437 220c5 6 13 0 10 -8l-61 -94c17 -67 72 -117 154 -117c80 0 158 70 158 157v395c0 60 -31 112 -80 137c-65 39 -150 24 -199 -33l-380 -385c-61 -62 -61 -160 0 -221c62 -62 163 -62 225 0zM407 932l161 -29c56 -10 91 -60 82 -115c-10 -53 -61 -88 -116 -78l-161 29
c-55 10 -90 61 -81 114c10 54 60 89 115 79z" />
    <glyph glyph-name="Idieresis" unicode="&#xcf;" horiz-adv-x="351" 
d="M46 886c56 0 105 -48 105 -102c0 -59 -49 -102 -105 -102c-58 0 -105 43 -105 102c0 54 47 102 105 102zM279 886c56 0 105 -48 105 -102c0 -59 -49 -102 -105 -102c-58 0 -104 43 -104 102c0 54 46 102 104 102zM158 1c-88 0 -158 73 -158 160v390c0 87 70 157 158 157
c91 0 161 -70 161 -157v-390c0 -87 -70 -160 -161 -160z" />
    <glyph glyph-name="Icircumflex" unicode="&#xce;" horiz-adv-x="351" 
d="M158 1c-88 0 -158 73 -158 160v390c0 87 70 157 158 157c91 0 161 -70 161 -157v-390c0 -87 -70 -160 -161 -160zM80 912c37 30 97 30 133 0l102 -83c95 -79 -26 -202 -110 -124l-88 80c-2 3 -7 0 -5 -3l39 -56l-70 -38c-95 -47 -179 73 -95 145z" />
    <glyph glyph-name="Iacute" unicode="&#xcd;" horiz-adv-x="351" 
d="M158 1c-88 0 -158 73 -158 160v390c0 87 70 157 158 157c91 0 161 -70 161 -157v-390c0 -87 -70 -160 -161 -160zM256 721l-125 -21c-60 -10 -115 29 -125 88c-10 58 30 112 90 122l125 21c60 10 114 -28 124 -87s-28 -113 -89 -123z" />
    <glyph glyph-name="Igrave" unicode="&#xcc;" horiz-adv-x="351" 
d="M158 1c-88 0 -158 73 -158 160v390c0 87 70 157 158 157c91 0 161 -70 161 -157v-390c0 -87 -70 -160 -161 -160zM103 917l161 -29c56 -10 91 -60 82 -115c-10 -53 -61 -88 -116 -78l-161 29c-55 10 -90 61 -81 114c10 54 60 89 115 79z" />
    <glyph glyph-name="Edieresis" unicode="&#xcb;" horiz-adv-x="599" 
d="M168 917c59 0 111 -50 111 -108c0 -62 -52 -108 -111 -108c-62 0 -111 46 -111 108c0 58 49 108 111 108zM409 917c59 0 111 -50 111 -108c0 -62 -52 -108 -111 -108c-62 0 -111 46 -111 108c0 58 49 108 111 108zM0 550c0 89 67 161 161 161h261
c126 0 196 -144 131 -245c-32 -52 -79 -70 -139 -72c-7 0 -7 -10 0 -13c55 -7 109 5 149 47c27 -59 17 -136 -27 -180c-30 -33 -70 -45 -112 -50c-7 0 -7 -12 0 -12c52 -5 104 5 141 49c10 -17 15 -35 15 -77c0 -62 -47 -158 -158 -158h-263c-89 0 -159 72 -159 158v392z
" />
    <glyph glyph-name="Ecircumflex" unicode="&#xca;" horiz-adv-x="599" 
d="M0 550c0 89 67 161 161 161h261c126 0 196 -144 131 -245c-32 -52 -79 -70 -139 -72c-7 0 -7 -10 0 -13c55 -7 109 5 149 47c27 -59 17 -136 -27 -180c-30 -33 -70 -45 -112 -50c-7 0 -7 -12 0 -12c52 -5 104 5 141 49c10 -17 15 -35 15 -77c0 -62 -47 -158 -158 -158
h-263c-89 0 -159 72 -159 158v392zM224 931c36 30 95 30 130 0l100 -81c93 -77 -25 -198 -107 -122l-87 79c-2 2 -7 0 -5 -3l38 -55l-68 -37c-93 -47 -176 71 -93 142z" />
    <glyph glyph-name="Eacute" unicode="&#xc9;" horiz-adv-x="599" 
d="M0 550c0 89 67 161 161 161h261c126 0 196 -144 131 -245c-32 -52 -79 -70 -139 -72c-7 0 -7 -10 0 -13c55 -7 109 5 149 47c27 -59 17 -136 -27 -180c-30 -33 -70 -45 -112 -50c-7 0 -7 -12 0 -12c52 -5 104 5 141 49c10 -17 15 -35 15 -77c0 -62 -47 -158 -158 -158
h-263c-89 0 -159 72 -159 158v392zM380 730l-125 -21c-60 -10 -115 29 -125 88c-10 58 30 112 90 122l125 21c60 10 114 -28 124 -87s-28 -113 -89 -123z" />
    <glyph glyph-name="Egrave" unicode="&#xc8;" horiz-adv-x="599" 
d="M0 550c0 89 67 161 161 161h261c126 0 196 -144 131 -245c-32 -52 -79 -70 -139 -72c-7 0 -7 -10 0 -13c55 -7 109 5 149 47c27 -59 17 -136 -27 -180c-30 -33 -70 -45 -112 -50c-7 0 -7 -12 0 -12c52 -5 104 5 141 49c10 -17 15 -35 15 -77c0 -62 -47 -158 -158 -158
h-263c-89 0 -159 72 -159 158v392zM224 935l161 -29c56 -10 91 -60 82 -115c-10 -53 -61 -88 -116 -78l-161 29c-55 10 -90 61 -81 114c10 54 60 89 115 79z" />
    <glyph glyph-name="Eth" unicode="&#xd0;" horiz-adv-x="693" 
d="M306 1h-144c-90 0 -162 69 -162 156v395c0 87 69 160 159 160h154c195 0 350 -160 350 -355c0 -197 -160 -356 -357 -356zM324 320c23 0 39 16 39 36c0 21 -16 39 -39 39h-21v-75h21zM279 419h133c61 0 109 -47 109 -107c0 -59 -48 -106 -109 -106h-133
c-61 0 -108 47 -108 106c0 60 47 107 108 107z" />
    <glyph glyph-name="Ntilde" unicode="&#xd1;" horiz-adv-x="740" 
d="M710 158c0 -154 -181 -202 -271 -111c-59 57 -116 111 -172 170c-3 6 -12 -3 -9 -10l57 -88c-15 -69 -80 -121 -155 -121c-88 0 -160 70 -160 160v394c0 87 72 160 160 160c48 0 92 -26 122 -56l163 -160c3 -6 12 0 9 6l-59 86c15 68 80 124 154 124
c89 0 161 -73 161 -160v-394zM219 684c-65 16 -82 84 -59 136c4 10 9 17 15 27c29 44 81 69 137 61c33 -4 86 -36 102 -68c0 -3 3 -3 6 -3c0 0 2 0 2 3c6 51 53 78 101 65c64 -18 80 -82 59 -134c-4 -7 -10 -17 -16 -25c-29 -43 -77 -69 -137 -62c-19 2 -33 12 -48 20v0
c-32 19 -55 50 -55 50l-2 1c-2 0 -2 -1 -2 -1c-7 -51 -53 -82 -103 -70z" />
    <glyph glyph-name="Odieresis" unicode="&#xd6;" 
d="M360 720c201 0 365 -164 365 -364c0 -201 -164 -362 -365 -362c-198 0 -363 161 -363 362c0 200 165 364 363 364zM360 394c-18 0 -36 -15 -36 -38c0 -21 18 -39 36 -39c21 0 39 18 39 39c0 23 -18 38 -39 38zM215 892c55 0 103 -46 103 -99c0 -57 -48 -100 -103 -100
c-57 0 -102 43 -102 100c0 53 45 99 102 99zM496 892c54 0 102 -46 102 -99c0 -57 -48 -100 -102 -100c-58 0 -103 43 -103 100c0 53 45 99 103 99z" />
    <glyph glyph-name="Otilde" unicode="&#xd5;" 
d="M360 720c201 0 365 -164 365 -364c0 -201 -164 -362 -365 -362c-198 0 -363 161 -363 362c0 200 165 364 363 364zM360 394c-18 0 -36 -15 -36 -38c0 -21 18 -39 36 -39c21 0 39 18 39 39c0 23 -18 38 -39 38zM215 708c-60 15 -75 77 -54 125c4 9 8 15 14 25
c26 40 74 63 126 56c30 -4 79 -33 94 -63c0 -3 3 -3 5 -3c0 0 2 0 2 3c6 47 49 72 93 60c59 -17 74 -75 54 -123c-3 -7 -9 -16 -14 -23c-27 -40 -71 -64 -126 -57c-18 2 -31 11 -45 18v0c-29 18 -50 46 -50 46l-2 1c-2 0 -2 -1 -2 -1c-6 -47 -49 -75 -95 -64z" />
    <glyph glyph-name="Ocircumflex" unicode="&#xd4;" 
d="M360 720c201 0 365 -164 365 -364c0 -201 -164 -362 -365 -362c-198 0 -363 161 -363 362c0 200 165 364 363 364zM360 394c-18 0 -36 -15 -36 -38c0 -21 18 -39 36 -39c21 0 39 18 39 39c0 23 -18 38 -39 38zM278 939c37 32 97 32 134 0l103 -87
c95 -82 -26 -210 -111 -129l-89 83c-2 3 -7 0 -5 -3l39 -58l-70 -39c-96 -50 -180 75 -96 151z" />
    <glyph glyph-name="Oacute" unicode="&#xd3;" 
d="M360 720c201 0 365 -164 365 -364c0 -201 -164 -362 -365 -362c-198 0 -363 161 -363 362c0 200 165 364 363 364zM360 394c-18 0 -36 -15 -36 -38c0 -21 18 -39 36 -39c21 0 39 18 39 39c0 23 -18 38 -39 38zM456 732l-125 -21c-60 -10 -115 29 -125 88
c-10 58 30 112 90 122l125 21c60 10 114 -28 124 -87s-28 -113 -89 -123z" />
    <glyph glyph-name="Ograve" unicode="&#xd2;" 
d="M360 720c201 0 365 -164 365 -364c0 -201 -164 -362 -365 -362c-198 0 -363 161 -363 362c0 200 165 364 363 364zM360 394c-18 0 -36 -15 -36 -38c0 -21 18 -39 36 -39c21 0 39 18 39 39c0 23 -18 38 -39 38zM307 930l161 -29c56 -10 91 -60 82 -115
c-10 -53 -61 -88 -116 -78l-161 29c-55 10 -90 61 -81 114c10 54 60 89 115 79z" />
    <glyph glyph-name="Yacute" unicode="&#xdd;" horiz-adv-x="699" 
d="M413 666l-77 -80l-79 80c-60 63 -157 63 -217 0c-60 -61 -60 -162 0 -225l137 -140v-140c0 -88 72 -159 159 -159c88 0 160 71 160 159v140l137 140c60 63 60 164 0 225c-60 63 -159 63 -220 0zM430 693l-125 -21c-60 -10 -115 29 -125 88c-10 58 30 112 90 122l125 21
c60 10 114 -28 124 -87s-28 -113 -89 -123z" />
    <glyph glyph-name="Udieresis" unicode="&#xdc;" horiz-adv-x="710" 
d="M341 -7c-187 0 -341 155 -341 341v215c0 88 72 161 161 161c88 0 158 -73 158 -161v-196c0 -12 9 -25 22 -25c12 0 22 13 22 25v196c0 88 72 161 161 161c85 0 158 -73 158 -161v-215c0 -186 -155 -341 -341 -341zM188 909c59 0 111 -50 111 -108
c0 -62 -52 -108 -111 -108c-62 0 -111 46 -111 108c0 58 49 108 111 108zM492 909c59 0 111 -50 111 -108c0 -62 -52 -108 -111 -108c-62 0 -111 46 -111 108c0 58 49 108 111 108z" />
    <glyph glyph-name="Ucircumflex" unicode="&#xdb;" horiz-adv-x="710" 
d="M341 -7c-187 0 -341 155 -341 341v215c0 88 72 161 161 161c88 0 158 -73 158 -161v-196c0 -12 9 -25 22 -25c12 0 22 13 22 25v196c0 88 72 161 161 161c85 0 158 -73 158 -161v-215c0 -186 -155 -341 -341 -341zM265 935c38 32 101 32 139 0l107 -87
c99 -82 -27 -211 -115 -130l-93 84c-2 3 -7 0 -5 -3l41 -59l-73 -39c-100 -50 -188 76 -100 152z" />
    <glyph glyph-name="Uacute" unicode="&#xda;" horiz-adv-x="710" 
d="M341 -7c-187 0 -341 155 -341 341v215c0 88 72 161 161 161c88 0 158 -73 158 -161v-196c0 -12 9 -25 22 -25c12 0 22 13 22 25v196c0 88 72 161 161 161c85 0 158 -73 158 -161v-215c0 -186 -155 -341 -341 -341zM442 693l-125 -21c-60 -10 -115 29 -125 88
c-10 58 30 112 90 122l125 21c60 10 114 -28 124 -87s-28 -113 -89 -123z" />
    <glyph glyph-name="Ugrave" unicode="&#xd9;" horiz-adv-x="710" 
d="M341 -7c-187 0 -341 155 -341 341v215c0 88 72 161 161 161c88 0 158 -73 158 -161v-196c0 -12 9 -25 22 -25c12 0 22 13 22 25v196c0 88 72 161 161 161c85 0 158 -73 158 -161v-215c0 -186 -155 -341 -341 -341zM284 901l161 -29c56 -10 91 -60 82 -115
c-10 -53 -61 -88 -116 -78l-161 29c-55 10 -90 61 -81 114c10 54 60 89 115 79z" />
    <glyph glyph-name="Oslash" unicode="&#xd8;" 
d="M360 720c201 0 365 -164 365 -364c0 -201 -164 -362 -365 -362c-198 0 -363 161 -363 362c0 200 165 364 363 364zM360 394c-18 0 -36 -15 -36 -38c0 -21 18 -39 36 -39c21 0 39 18 39 39c0 23 -18 38 -39 38zM178 61c31 107 159 545 188 646c15 58 76 92 134 74
c58 -16 92 -76 76 -134c-53 -189 -94 -322 -188 -647c-18 -58 -78 -92 -136 -74c-59 16 -92 76 -74 135z" />
    <glyph glyph-name="thorn" unicode="&#xfe;" horiz-adv-x="617" 
d="M293 125v-134c0 -80 -67 -145 -147 -145c-79 0 -146 65 -146 145v588c0 81 67 148 146 148c80 0 147 -67 147 -148v-133c0 -3 9 -5 9 0l22 131c146 -13 264 -139 264 -292s-118 -276 -264 -292l-22 132c0 5 -9 5 -9 0z" />
    <glyph glyph-name="Thorn" unicode="&#xde;" horiz-adv-x="576" 
d="M324 136h-83c-4 0 -4 -7 0 -7l78 -16c-21 -70 -82 -120 -155 -120c-91 0 -164 80 -164 181v373c0 101 73 168 164 168c71 0 132 -42 155 -107l-78 -17c-4 0 -4 -6 0 -6h83c123 0 222 -101 222 -225s-99 -224 -222 -224z" />
    <glyph glyph-name="germandbls" unicode="&#xdf;" horiz-adv-x="579" 
d="M141 1c-78 0 -141 63 -141 141v349c0 106 59 217 181 217h118c109 0 201 -90 201 -198c0 -109 -88 -198 -196 -200c-5 0 -5 -5 0 -5c68 -12 137 21 179 75c125 -134 76 -379 -151 -379h-191z" />
    <glyph glyph-name="ydieresis" unicode="&#xff;" horiz-adv-x="699" 
d="M413 666l-77 -80l-79 80c-60 63 -157 63 -217 0c-60 -61 -60 -162 0 -225l137 -140v-140c0 -88 72 -159 159 -159c88 0 160 71 160 159v140l137 140c60 63 60 164 0 225c-60 63 -159 63 -220 0zM197 926c59 0 111 -50 111 -108c0 -62 -52 -108 -111 -108
c-62 0 -111 46 -111 108c0 58 49 108 111 108zM501 926c59 0 111 -50 111 -108c0 -62 -52 -108 -111 -108c-62 0 -111 46 -111 108c0 58 49 108 111 108z" />
    <glyph glyph-name="aring" unicode="&#xe5;" horiz-adv-x="728" 
d="M260 220c-5 6 -13 0 -10 -8l61 -94c-17 -67 -72 -117 -154 -117c-80 0 -158 70 -158 157v395c0 60 31 112 80 137c65 39 150 24 199 -33l380 -385c61 -62 61 -160 0 -221c-62 -62 -163 -62 -225 0zM250 732h2c-26 -27 -60 -39 -94 -39c-36 0 -69 12 -95 39h2
c-26 25 -39 60 -39 94c0 36 12 69 39 94v-1c25 25 58 37 93 37c34 0 68 -12 94 -37c25 -26 37 -59 37 -93s-13 -69 -39 -94z" />
    <glyph glyph-name="adieresis" unicode="&#xe4;" horiz-adv-x="728" 
d="M39 919c59 0 111 -50 111 -108c0 -62 -52 -108 -111 -108c-62 0 -111 46 -111 108c0 58 49 108 111 108zM291 919c59 0 111 -50 111 -108c0 -62 -52 -108 -111 -108c-62 0 -111 46 -111 108c0 58 49 108 111 108zM260 220c-5 6 -13 0 -10 -8l61 -94
c-17 -67 -72 -117 -154 -117c-80 0 -158 70 -158 157v395c0 60 31 112 80 137c65 39 150 24 199 -33l380 -385c61 -62 61 -160 0 -221c-62 -62 -163 -62 -225 0z" />
    <glyph glyph-name="atilde" unicode="&#xe3;" horiz-adv-x="728" 
d="M260 220c-5 6 -13 0 -10 -8l61 -94c-17 -67 -72 -117 -154 -117c-80 0 -158 70 -158 157v395c0 60 31 112 80 137c65 39 150 24 199 -33l380 -385c61 -62 61 -160 0 -221c-62 -62 -163 -62 -225 0zM48 683c-57 14 -71 74 -52 121c4 8 8 14 14 24c24 39 70 61 119 54
c28 -4 75 -32 89 -61c0 -3 3 -3 5 -3c0 0 2 0 2 3c5 46 46 70 88 58c55 -16 70 -72 51 -119c-3 -7 -9 -15 -14 -22c-25 -39 -67 -62 -119 -55c-17 1 -29 10 -42 17v0c-28 17 -48 45 -48 45l-2 1c-2 0 -2 -1 -2 -1c-5 -46 -46 -73 -89 -62z" />
    <glyph glyph-name="acircumflex" unicode="&#xe2;" horiz-adv-x="728" 
d="M260 220c-5 6 -13 0 -10 -8l61 -94c-17 -67 -72 -117 -154 -117c-80 0 -158 70 -158 157v395c0 60 31 112 80 137c65 39 150 24 199 -33l380 -385c61 -62 61 -160 0 -221c-62 -62 -163 -62 -225 0zM114 902c35 30 94 30 129 0l99 -81c92 -76 -25 -195 -106 -120l-87 78
c-2 2 -6 0 -4 -3l38 -55l-68 -36c-93 -46 -175 70 -93 141z" />
    <glyph glyph-name="aacute" unicode="&#xe1;" horiz-adv-x="728" 
d="M260 220c-5 6 -13 0 -10 -8l61 -94c-17 -67 -72 -117 -154 -117c-80 0 -158 70 -158 157v395c0 60 31 112 80 137c65 39 150 24 199 -33l380 -385c61 -62 61 -160 0 -221c-62 -62 -163 -62 -225 0zM246 722l-125 -21c-60 -10 -115 29 -125 88c-10 58 30 112 90 122
l125 21c60 10 114 -28 124 -87s-28 -113 -89 -123z" />
    <glyph glyph-name="agrave" unicode="&#xe0;" horiz-adv-x="728" 
d="M260 220c-5 6 -13 0 -10 -8l61 -94c-17 -67 -72 -117 -154 -117c-80 0 -158 70 -158 157v395c0 60 31 112 80 137c65 39 150 24 199 -33l380 -385c61 -62 61 -160 0 -221c-62 -62 -163 -62 -225 0zM112 916l161 -29c56 -10 91 -60 82 -115c-10 -53 -61 -88 -116 -78
l-161 29c-55 10 -90 61 -81 114c10 54 60 89 115 79z" />
    <glyph glyph-name="ae" unicode="&#xe6;" horiz-adv-x="1302" 
d="M440 220l-173 -169c-62 -62 -163 -62 -225 0c-61 61 -61 159 0 221l380 385c49 57 134 72 199 33c49 -25 80 -77 80 -137v-395c0 -87 -78 -157 -158 -157c-82 0 -137 50 -154 117l61 94c3 8 -5 14 -10 8zM703 550c0 89 67 161 161 161h261c126 0 196 -144 131 -245
c-32 -52 -79 -70 -139 -72c-7 0 -7 -10 0 -13c55 -7 109 5 149 47c27 -59 17 -136 -27 -180c-30 -33 -70 -45 -112 -50c-7 0 -7 -12 0 -12c52 -5 104 5 141 49c10 -17 15 -35 15 -77c0 -62 -47 -158 -158 -158h-263c-89 0 -159 72 -159 158v392z" />
    <glyph glyph-name="ccedilla" unicode="&#xe7;" horiz-adv-x="693" 
d="M354 711h140c93 0 169 -80 169 -170c0 -94 -76 -169 -169 -169c-50 0 -89 23 -119 23c-21 0 -39 -18 -39 -39c0 -20 18 -36 39 -36c30 0 69 23 119 23c93 0 169 -80 169 -174c0 -90 -76 -169 -169 -169h-145c-192 0 -349 167 -349 356c0 198 159 352 354 355zM316 -29
c10 21 21 46 30 69c0 1 -1 4 -4 1l-26 -29c-13 18 -21 42 -21 66c0 63 50 112 110 112c97 0 144 -102 101 -194l-39 -91c-19 -41 -67 -59 -109 -43c-40 20 -59 67 -42 109z" />
    <glyph glyph-name="egrave" unicode="&#xe8;" horiz-adv-x="599" 
d="M0 550c0 89 67 161 161 161h261c126 0 196 -144 131 -245c-32 -52 -79 -70 -139 -72c-7 0 -7 -10 0 -13c55 -7 109 5 149 47c27 -59 17 -136 -27 -180c-30 -33 -70 -45 -112 -50c-7 0 -7 -12 0 -12c52 -5 104 5 141 49c10 -17 15 -35 15 -77c0 -62 -47 -158 -158 -158
h-263c-89 0 -159 72 -159 158v392zM224 935l161 -29c56 -10 91 -60 82 -115c-10 -53 -61 -88 -116 -78l-161 29c-55 10 -90 61 -81 114c10 54 60 89 115 79z" />
    <glyph glyph-name="eacute" unicode="&#xe9;" horiz-adv-x="599" 
d="M0 550c0 89 67 161 161 161h261c126 0 196 -144 131 -245c-32 -52 -79 -70 -139 -72c-7 0 -7 -10 0 -13c55 -7 109 5 149 47c27 -59 17 -136 -27 -180c-30 -33 -70 -45 -112 -50c-7 0 -7 -12 0 -12c52 -5 104 5 141 49c10 -17 15 -35 15 -77c0 -62 -47 -158 -158 -158
h-263c-89 0 -159 72 -159 158v392zM380 730l-125 -21c-60 -10 -115 29 -125 88c-10 58 30 112 90 122l125 21c60 10 114 -28 124 -87s-28 -113 -89 -123z" />
    <glyph glyph-name="ecircumflex" unicode="&#xea;" horiz-adv-x="599" 
d="M0 550c0 89 67 161 161 161h261c126 0 196 -144 131 -245c-32 -52 -79 -70 -139 -72c-7 0 -7 -10 0 -13c55 -7 109 5 149 47c27 -59 17 -136 -27 -180c-30 -33 -70 -45 -112 -50c-7 0 -7 -12 0 -12c52 -5 104 5 141 49c10 -17 15 -35 15 -77c0 -62 -47 -158 -158 -158
h-263c-89 0 -159 72 -159 158v392zM224 931c36 30 95 30 130 0l100 -81c93 -77 -25 -198 -107 -122l-87 79c-2 2 -7 0 -5 -3l38 -55l-68 -37c-93 -47 -176 71 -93 142z" />
    <glyph glyph-name="edieresis" unicode="&#xeb;" horiz-adv-x="599" 
d="M168 917c59 0 111 -50 111 -108c0 -62 -52 -108 -111 -108c-62 0 -111 46 -111 108c0 58 49 108 111 108zM409 917c59 0 111 -50 111 -108c0 -62 -52 -108 -111 -108c-62 0 -111 46 -111 108c0 58 49 108 111 108zM0 550c0 89 67 161 161 161h261
c126 0 196 -144 131 -245c-32 -52 -79 -70 -139 -72c-7 0 -7 -10 0 -13c55 -7 109 5 149 47c27 -59 17 -136 -27 -180c-30 -33 -70 -45 -112 -50c-7 0 -7 -12 0 -12c52 -5 104 5 141 49c10 -17 15 -35 15 -77c0 -62 -47 -158 -158 -158h-263c-89 0 -159 72 -159 158v392z
" />
    <glyph glyph-name="igrave" unicode="&#xec;" horiz-adv-x="351" 
d="M158 1c-88 0 -158 73 -158 160v390c0 87 70 157 158 157c91 0 161 -70 161 -157v-390c0 -87 -70 -160 -161 -160zM103 917l161 -29c56 -10 91 -60 82 -115c-10 -53 -61 -88 -116 -78l-161 29c-55 10 -90 61 -81 114c10 54 60 89 115 79z" />
    <glyph glyph-name="iacute" unicode="&#xed;" horiz-adv-x="351" 
d="M158 1c-88 0 -158 73 -158 160v390c0 87 70 157 158 157c91 0 161 -70 161 -157v-390c0 -87 -70 -160 -161 -160zM256 721l-125 -21c-60 -10 -115 29 -125 88c-10 58 30 112 90 122l125 21c60 10 114 -28 124 -87s-28 -113 -89 -123z" />
    <glyph glyph-name="icircumflex" unicode="&#xee;" horiz-adv-x="351" 
d="M158 1c-88 0 -158 73 -158 160v390c0 87 70 157 158 157c91 0 161 -70 161 -157v-390c0 -87 -70 -160 -161 -160zM80 912c37 30 97 30 133 0l102 -83c95 -79 -26 -202 -110 -124l-88 80c-2 3 -7 0 -5 -3l39 -56l-70 -38c-95 -47 -179 73 -95 145z" />
    <glyph glyph-name="idieresis" unicode="&#xef;" horiz-adv-x="351" 
d="M46 886c56 0 105 -48 105 -102c0 -59 -49 -102 -105 -102c-58 0 -105 43 -105 102c0 54 47 102 105 102zM279 886c56 0 105 -48 105 -102c0 -59 -49 -102 -105 -102c-58 0 -104 43 -104 102c0 54 46 102 104 102zM158 1c-88 0 -158 73 -158 160v390c0 87 70 157 158 157
c91 0 161 -70 161 -157v-390c0 -87 -70 -160 -161 -160z" />
    <glyph glyph-name="eth" unicode="&#xf0;" horiz-adv-x="669" 
d="M303 -2h-141c-89 0 -158 89 -158 158c0 54 15 94 62 126c39 -27 91 -42 143 -39c7 0 7 9 0 12c-119 15 -213 86 -210 225c0 103 81 229 232 229h67c464 0 462 -711 5 -711z" />
    <glyph glyph-name="ntilde" unicode="&#xf1;" horiz-adv-x="740" 
d="M710 158c0 -154 -181 -202 -271 -111c-59 57 -116 111 -172 170c-3 6 -12 -3 -9 -10l57 -88c-15 -69 -80 -121 -155 -121c-88 0 -160 70 -160 160v394c0 87 72 160 160 160c48 0 92 -26 122 -56l163 -160c3 -6 12 0 9 6l-59 86c15 68 80 124 154 124
c89 0 161 -73 161 -160v-394zM219 684c-65 16 -82 84 -59 136c4 10 9 17 15 27c29 44 81 69 137 61c33 -4 86 -36 102 -68c0 -3 3 -3 6 -3c0 0 2 0 2 3c6 51 53 78 101 65c64 -18 80 -82 59 -134c-4 -7 -10 -17 -16 -25c-29 -43 -77 -69 -137 -62c-19 2 -33 12 -48 20v0
c-32 19 -55 50 -55 50l-2 1c-2 0 -2 -1 -2 -1c-7 -51 -53 -82 -103 -70z" />
    <glyph glyph-name="ograve" unicode="&#xf2;" 
d="M360 720c201 0 365 -164 365 -364c0 -201 -164 -362 -365 -362c-198 0 -363 161 -363 362c0 200 165 364 363 364zM360 394c-18 0 -36 -15 -36 -38c0 -21 18 -39 36 -39c21 0 39 18 39 39c0 23 -18 38 -39 38zM307 930l161 -29c56 -10 91 -60 82 -115
c-10 -53 -61 -88 -116 -78l-161 29c-55 10 -90 61 -81 114c10 54 60 89 115 79z" />
    <glyph glyph-name="oacute" unicode="&#xf3;" 
d="M360 720c201 0 365 -164 365 -364c0 -201 -164 -362 -365 -362c-198 0 -363 161 -363 362c0 200 165 364 363 364zM360 394c-18 0 -36 -15 -36 -38c0 -21 18 -39 36 -39c21 0 39 18 39 39c0 23 -18 38 -39 38zM456 732l-125 -21c-60 -10 -115 29 -125 88
c-10 58 30 112 90 122l125 21c60 10 114 -28 124 -87s-28 -113 -89 -123z" />
    <glyph glyph-name="ocircumflex" unicode="&#xf4;" 
d="M360 720c201 0 365 -164 365 -364c0 -201 -164 -362 -365 -362c-198 0 -363 161 -363 362c0 200 165 364 363 364zM360 394c-18 0 -36 -15 -36 -38c0 -21 18 -39 36 -39c21 0 39 18 39 39c0 23 -18 38 -39 38zM278 939c37 32 97 32 134 0l103 -87
c95 -82 -26 -210 -111 -129l-89 83c-2 3 -7 0 -5 -3l39 -58l-70 -39c-96 -50 -180 75 -96 151z" />
    <glyph glyph-name="otilde" unicode="&#xf5;" 
d="M360 720c201 0 365 -164 365 -364c0 -201 -164 -362 -365 -362c-198 0 -363 161 -363 362c0 200 165 364 363 364zM360 394c-18 0 -36 -15 -36 -38c0 -21 18 -39 36 -39c21 0 39 18 39 39c0 23 -18 38 -39 38zM215 708c-60 15 -75 77 -54 125c4 9 8 15 14 25
c26 40 74 63 126 56c30 -4 79 -33 94 -63c0 -3 3 -3 5 -3c0 0 2 0 2 3c6 47 49 72 93 60c59 -17 74 -75 54 -123c-3 -7 -9 -16 -14 -23c-27 -40 -71 -64 -126 -57c-18 2 -31 11 -45 18v0c-29 18 -50 46 -50 46l-2 1c-2 0 -2 -1 -2 -1c-6 -47 -49 -75 -95 -64z" />
    <glyph glyph-name="odieresis" unicode="&#xf6;" 
d="M360 720c201 0 365 -164 365 -364c0 -201 -164 -362 -365 -362c-198 0 -363 161 -363 362c0 200 165 364 363 364zM360 394c-18 0 -36 -15 -36 -38c0 -21 18 -39 36 -39c21 0 39 18 39 39c0 23 -18 38 -39 38zM215 892c55 0 103 -46 103 -99c0 -57 -48 -100 -103 -100
c-57 0 -102 43 -102 100c0 53 45 99 102 99zM496 892c54 0 102 -46 102 -99c0 -57 -48 -100 -102 -100c-58 0 -103 43 -103 100c0 53 45 99 103 99z" />
    <glyph glyph-name="oslash" unicode="&#xf8;" 
d="M360 720c201 0 365 -164 365 -364c0 -201 -164 -362 -365 -362c-198 0 -363 161 -363 362c0 200 165 364 363 364zM360 394c-18 0 -36 -15 -36 -38c0 -21 18 -39 36 -39c21 0 39 18 39 39c0 23 -18 38 -39 38zM178 61c31 107 159 545 188 646c15 58 76 92 134 74
c58 -16 92 -76 76 -134c-53 -189 -94 -322 -188 -647c-18 -58 -78 -92 -136 -74c-59 16 -92 76 -74 135z" />
    <glyph glyph-name="ugrave" unicode="&#xf9;" horiz-adv-x="710" 
d="M341 -7c-187 0 -341 155 -341 341v215c0 88 72 161 161 161c88 0 158 -73 158 -161v-196c0 -12 9 -25 22 -25c12 0 22 13 22 25v196c0 88 72 161 161 161c85 0 158 -73 158 -161v-215c0 -186 -155 -341 -341 -341zM284 901l161 -29c56 -10 91 -60 82 -115
c-10 -53 -61 -88 -116 -78l-161 29c-55 10 -90 61 -81 114c10 54 60 89 115 79z" />
    <glyph glyph-name="uacute" unicode="&#xfa;" horiz-adv-x="710" 
d="M341 -7c-187 0 -341 155 -341 341v215c0 88 72 161 161 161c88 0 158 -73 158 -161v-196c0 -12 9 -25 22 -25c12 0 22 13 22 25v196c0 88 72 161 161 161c85 0 158 -73 158 -161v-215c0 -186 -155 -341 -341 -341zM442 693l-125 -21c-60 -10 -115 29 -125 88
c-10 58 30 112 90 122l125 21c60 10 114 -28 124 -87s-28 -113 -89 -123z" />
    <glyph glyph-name="ucircumflex" unicode="&#xfb;" horiz-adv-x="710" 
d="M341 -7c-187 0 -341 155 -341 341v215c0 88 72 161 161 161c88 0 158 -73 158 -161v-196c0 -12 9 -25 22 -25c12 0 22 13 22 25v196c0 88 72 161 161 161c85 0 158 -73 158 -161v-215c0 -186 -155 -341 -341 -341zM265 935c38 32 101 32 139 0l107 -87
c99 -82 -27 -211 -115 -130l-93 84c-2 3 -7 0 -5 -3l41 -59l-73 -39c-100 -50 -188 76 -100 152z" />
    <glyph glyph-name="udieresis" unicode="&#xfc;" horiz-adv-x="710" 
d="M341 -7c-187 0 -341 155 -341 341v215c0 88 72 161 161 161c88 0 158 -73 158 -161v-196c0 -12 9 -25 22 -25c12 0 22 13 22 25v196c0 88 72 161 161 161c85 0 158 -73 158 -161v-215c0 -186 -155 -341 -341 -341zM188 909c59 0 111 -50 111 -108
c0 -62 -52 -108 -111 -108c-62 0 -111 46 -111 108c0 58 49 108 111 108zM492 909c59 0 111 -50 111 -108c0 -62 -52 -108 -111 -108c-62 0 -111 46 -111 108c0 58 49 108 111 108z" />
    <glyph glyph-name="yacute" unicode="&#xfd;" horiz-adv-x="699" 
d="M413 666l-77 -80l-79 80c-60 63 -157 63 -217 0c-60 -61 -60 -162 0 -225l137 -140v-140c0 -88 72 -159 159 -159c88 0 160 71 160 159v140l137 140c60 63 60 164 0 225c-60 63 -159 63 -220 0zM430 693l-125 -21c-60 -10 -115 29 -125 88c-10 58 30 112 90 122l125 21
c60 10 114 -28 124 -87s-28 -113 -89 -123z" />
    <glyph glyph-name="space" unicode=" " horiz-adv-x="259" 
 />
  </font>
</defs>
</svg>
