<svg width="3501" height="869" viewBox="0 0 3501 869" fill="none" xmlns="http://www.w3.org/2000/svg">
<rect x="4.85461" width="3495.3" height="288.848" fill="white"/>
<path d="M0 646.873C6.13113 656.987 24.4524 677.457 48.6884 678.428C72.9244 679.399 91.967 650.514 98.4588 635.95V417.494C97.7374 406.976 104.085 386.425 135.246 388.367C166.406 390.309 171.311 406.167 169.868 413.853V541.286C169.508 546.545 173.763 556.578 193.672 554.636C213.58 552.694 216.393 540.882 215.311 535.218V447.835C215.311 442.576 217.691 432.543 227.213 434.485C236.734 436.427 239.835 444.194 240.196 447.835V597.114C239.835 601.968 241.278 611.435 249.934 610.464C258.589 609.493 259.311 611.678 258.589 612.891V742.751C258.95 747.606 263.999 757.072 281.311 756.101C298.622 755.13 305.114 743.56 306.196 737.897V519.44C305.835 513.372 309.009 501.478 324.589 502.449C340.17 503.42 343.343 512.563 342.983 517.013V651.728C342.983 660.628 349.474 678.428 375.442 678.428C401.409 678.428 407.179 660.628 406.819 651.728V476.963C407.179 461.59 418.071 431.087 458.753 432.058C499.435 433.029 508.163 462.399 507.441 476.963V834.988C508.523 846.72 520.425 869.941 559.376 868.97C598.326 868 610.228 845.911 611.31 834.988V376.23C612.031 361.262 622.779 331.568 659.998 332.539C697.218 333.51 706.523 362.071 706.523 376.23V281.566H3.24589L0 646.873Z" fill="white"/>
<path d="M701.113 646.873C707.244 656.987 725.565 677.457 749.801 678.428C774.037 679.399 793.08 650.514 799.572 635.95V417.494C798.85 406.976 805.198 386.425 836.359 388.367C867.519 390.309 872.424 406.167 870.981 413.853V541.286C870.621 546.545 874.876 556.578 894.785 554.636C914.693 552.694 917.506 540.882 916.424 535.218V447.835C916.424 442.576 918.804 432.543 928.326 434.485C937.847 436.427 940.948 444.194 941.309 447.835V597.114C940.948 601.968 942.391 611.435 951.047 610.464C959.702 609.493 960.424 611.678 959.702 612.891V742.751C960.063 747.606 965.112 757.072 982.424 756.101C999.735 755.13 1006.23 743.56 1007.31 737.897V519.44C1006.95 513.372 1010.12 501.478 1025.7 502.449C1041.28 503.42 1044.46 512.563 1044.1 517.013V651.728C1044.1 660.628 1050.59 678.428 1076.55 678.428C1102.52 678.428 1108.29 660.628 1107.93 651.728V476.963C1108.29 461.59 1119.18 431.087 1159.87 432.058C1200.55 433.029 1209.28 462.399 1208.55 476.963V834.988C1209.64 846.72 1221.54 869.941 1260.49 868.97C1299.44 868 1311.34 845.911 1312.42 834.988V376.23C1313.14 361.262 1323.89 331.568 1361.11 332.539C1398.33 333.51 1407.64 362.071 1407.64 376.23V281.566H704.359L701.113 646.873Z" fill="white"/>
<path d="M1397.9 646.873C1404.03 656.987 1422.35 677.457 1446.59 678.428C1470.82 679.399 1489.87 650.514 1496.36 635.95V417.494C1495.64 406.976 1501.98 386.425 1533.14 388.367C1564.3 390.309 1569.21 406.167 1567.77 413.853V541.286C1567.41 546.545 1571.66 556.578 1591.57 554.636C1611.48 552.694 1614.29 540.882 1613.21 535.218V447.835C1613.21 442.576 1615.59 432.543 1625.11 434.485C1634.63 436.427 1637.73 444.194 1638.09 447.835V597.114C1637.73 601.968 1639.18 611.435 1647.83 610.464C1656.49 609.493 1657.21 611.678 1656.49 612.891V742.751C1656.85 747.606 1661.9 757.072 1679.21 756.101C1696.52 755.13 1703.01 743.56 1704.09 737.897V519.44C1703.73 513.372 1706.91 501.478 1722.49 502.449C1738.07 503.42 1741.24 512.563 1740.88 517.013V651.728C1740.88 660.628 1747.37 678.428 1773.34 678.428C1799.31 678.428 1805.08 660.628 1804.72 651.728V476.963C1805.08 461.59 1815.97 431.087 1856.65 432.058C1897.33 433.029 1906.06 462.399 1905.34 476.963V834.988C1906.42 846.72 1918.32 869.941 1957.27 868.97C1996.22 868 2008.13 845.911 2009.21 834.988V376.23C2009.93 361.262 2020.68 331.568 2057.9 332.539C2095.12 333.51 2104.42 362.071 2104.42 376.23V281.566H1401.14L1397.9 646.873Z" fill="white"/>
<path d="M2101.18 646.873C2107.31 656.987 2125.63 677.457 2149.86 678.428C2174.1 679.399 2193.14 650.514 2199.63 635.95V417.494C2198.91 406.976 2205.26 386.425 2236.42 388.367C2267.58 390.309 2272.49 406.167 2271.04 413.853V541.286C2270.68 546.545 2274.94 556.578 2294.85 554.636C2314.75 552.694 2317.57 540.882 2316.49 535.218V447.835C2316.49 442.576 2318.87 432.543 2328.39 434.485C2337.91 436.427 2341.01 444.194 2341.37 447.835V597.114C2341.01 601.968 2342.45 611.435 2351.11 610.464C2359.76 609.493 2360.49 611.678 2359.76 612.891V742.751C2360.13 747.606 2365.17 757.072 2382.49 756.101C2399.8 755.13 2406.29 743.56 2407.37 737.897V519.44C2407.01 513.372 2410.18 501.478 2425.76 502.449C2441.34 503.42 2444.52 512.563 2444.16 517.013V651.728C2444.16 660.628 2450.65 678.428 2476.62 678.428C2502.58 678.428 2508.35 660.628 2507.99 651.728V476.963C2508.35 461.59 2519.25 431.087 2559.93 432.058C2600.61 433.029 2609.34 462.399 2608.62 476.963V834.988C2609.7 846.72 2621.6 869.941 2660.55 868.97C2699.5 868 2711.4 845.911 2712.48 834.988V376.23C2713.21 361.262 2723.95 331.568 2761.17 332.539C2798.39 333.51 2807.7 362.071 2807.7 376.23V281.566H2104.42L2101.18 646.873Z" fill="white"/>
<path d="M2793.63 646.873C2799.76 656.987 2818.08 677.457 2842.32 678.428C2866.56 679.399 2885.6 650.514 2892.09 635.95V417.494C2891.37 406.976 2897.72 386.425 2928.88 388.367C2960.04 390.309 2964.94 406.167 2963.5 413.853V541.286C2963.14 546.545 2967.4 556.578 2987.3 554.636C3007.21 552.694 3010.03 540.882 3008.94 535.218V447.835C3008.94 442.576 3011.32 432.543 3020.84 434.485C3030.37 436.427 3033.47 444.194 3033.83 447.835V597.114C3033.47 601.968 3034.91 611.435 3043.57 610.464C3052.22 609.493 3052.94 611.678 3052.22 612.891V742.751C3052.58 747.606 3057.63 757.072 3074.94 756.101C3092.25 755.13 3098.75 743.56 3099.83 737.897V519.44C3099.47 513.372 3102.64 501.478 3118.22 502.449C3133.8 503.42 3136.98 512.563 3136.62 517.013V651.728C3136.62 660.628 3143.11 678.428 3169.07 678.428C3195.04 678.428 3200.81 660.628 3200.45 651.728V476.963C3200.81 461.59 3211.7 431.087 3252.39 432.058C3293.07 433.029 3301.79 462.399 3301.07 476.963V834.988C3302.16 846.72 3314.06 869.941 3353.01 868.97C3391.96 868 3403.86 845.911 3404.94 834.988V376.23C3405.66 361.262 3416.41 331.568 3453.63 332.539C3490.85 333.51 3500.16 362.071 3500.16 376.23V281.566H2796.88L2793.63 646.873Z" fill="white"/>
</svg>
