<svg width="217" height="253" viewBox="0 0 217 253" fill="none" xmlns="http://www.w3.org/2000/svg">
<path d="M77.016 54V34C76.8493 31.6667 77.916 27 83.516 27H88.516V8.5H92.016V27H103.516V0H107.016V27H119.516V8.5H122.516V27H133.516C135.683 27 140.016 28.4 140.016 34V56L77.016 54Z" fill="#CC3874"/>
<path d="M105 177.5C56.2 180.3 16.3333 164 2.50001 155.5C0.500007 170.5 0.500007 181 1.00001 204C1.40001 222.4 9.83334 237 14 242C16.6667 244.833 23.9 250.8 31.5 252C41 253.5 50 247.5 53 245C56 242.5 62 234 65.5 226.5C69 219 74.5 210 77 206C79 202.8 84.5 201.667 87 201.5H92.5C97.5 203.667 108.8 209.6 114 216C119.2 222.4 130.167 219.333 135 217C138.167 215 145.9 210.4 151.5 208C157.1 205.6 163.167 206.667 165.5 207.5L192 216C196 218.333 205.3 221.6 210.5 216C215.7 210.4 216.667 193.667 216.5 186L213 155.5C197.333 161.667 153.8 174.7 105 177.5Z" fill="#FFC2D4"/>
<path d="M106.484 107.237C72.5628 109.176 44.8513 97.8871 35.2357 92C33.8455 102.389 33.8455 109.661 34.1931 125.591C34.4711 138.335 40.3332 148.447 43.2294 151.91C45.083 153.872 50.111 158.004 55.3938 158.836C61.9972 159.874 68.2532 155.719 70.3385 153.987C72.4238 152.256 76.5944 146.369 79.0273 141.174C81.4601 135.98 85.2832 129.747 87.021 126.976C88.4112 124.76 92.2343 123.975 93.972 123.859H97.7951C101.271 125.36 109.125 129.469 112.74 133.902C116.354 138.335 123.977 136.211 127.337 134.595C129.538 133.209 134.914 130.024 138.806 128.361C142.699 126.699 146.916 127.438 148.538 128.015L166.958 133.902C169.738 135.518 176.203 137.781 179.817 133.902C183.432 130.024 184.104 118.434 183.988 113.124L181.555 92C170.665 96.271 140.405 105.298 106.484 107.237Z" fill="#F14F9B"/>
<path d="M110.362 54.9161C135.464 56.3055 155.97 48.2176 163.086 44C164.114 51.4428 164.114 56.6528 163.857 68.0651C163.651 77.195 159.313 84.4394 157.17 86.9203C155.799 88.3262 152.078 91.2868 148.169 91.8822C143.282 92.6265 138.653 89.6493 137.11 88.4089C135.566 87.1684 132.48 82.9508 130.68 79.2294C128.879 75.508 126.05 71.0423 124.764 69.0575C123.736 67.4697 120.907 66.9074 119.621 66.8247H116.792C114.22 67.8997 108.407 70.8438 105.733 74.0194C103.058 77.195 97.4168 75.6734 94.9306 74.5156C93.3018 73.5232 89.3239 71.2407 86.4434 70.0499C83.5629 68.859 80.4423 69.3883 79.2421 69.8018L65.6111 74.0194C63.5536 75.1772 58.7699 76.7981 56.0952 74.0194C53.4204 71.2407 52.9232 62.9379 53.0089 59.1337L54.8092 44C62.8678 47.0598 85.2603 53.5268 110.362 54.9161Z" fill="#CC3874"/>
</svg>
