<?xml version="1.0" encoding="iso-8859-1"?>
<!-- Generator: Adobe Illustrator 19.1.0, SVG Export Plug-In . SVG Version: 6.00 Build 0)  -->
<svg version="1.1" id="Capa_1" xmlns="http://www.w3.org/2000/svg" xmlns:xlink="http://www.w3.org/1999/xlink" x="0px" y="0px"
	 viewBox="0 0 63.009 63.009" style="enable-background:new 0 0 63.009 63.009;" xml:space="preserve">
<g>
	<g id="group-11svg">
		<path id="path-1_1_" style="fill:#E56A77;" d="M12.406,31.581c0-10.763,11.586-17.582,22.349-17.582s22.348,6.819,22.348,17.582
			c0,10.764-11.585,30.928-22.348,30.928S12.406,42.345,12.406,31.581z"/>
		<path id="path-2_1_" style="fill:#81BDA4;" d="M40.295,10.259c0.11-1.32,5.279-7.358,5.279-7.358
			C41.832,1.58,34.936,7.893,34.936,7.893l-0.004,0.152l-0.003-0.238c0,0-6.896-6.441-10.638-5.12c0,0,5.169,6.041,5.278,7.361
			c0,0-7.856-0.337-10.608,5.383l7.648-0.162l7.705-1.674c0.954-0.005,0.954,0.213,0.954,0.218l8.152,2.052h7.483
			C48.152,8.865,40.295,10.259,40.295,10.259z"/>
		<path id="path-3_1_" d="M29.755,63.009c-11.828,0-23.849-20.804-23.849-32.428c0-11.786,12.379-19.082,23.849-19.082
			c11.469,0,23.848,7.296,23.848,19.082C53.603,42.205,41.583,63.009,29.755,63.009z M29.755,14.499
			c-10.027,0-20.849,6.149-20.849,16.082c0,10.231,11.045,29.428,20.849,29.428c9.803,0,20.848-19.197,20.848-29.428
			C50.603,20.648,39.781,14.499,29.755,14.499z"/>
		<path id="path-4_1_" d="M13.961,15.865c-0.51,0-0.986-0.227-1.262-0.657c-0.282-0.438-0.316-0.976-0.09-1.446
			c2.105-4.374,6.679-5.68,9.523-6.069c-0.983-1.394-2.55-3.37-3.981-5.043c-0.321-0.376-0.437-0.884-0.309-1.362
			c0.129-0.477,0.483-0.86,0.95-1.025C19.288,0.088,19.833,0,20.41,0c3.408,0,7.624,3.193,9.55,4.819
			c1.946-1.621,6.109-4.724,9.485-4.724c0.581,0,1.129,0.09,1.628,0.266c0.469,0.166,0.825,0.553,0.952,1.034
			c0.126,0.481,0.006,0.993-0.322,1.368c-1.313,1.502-2.741,3.261-3.726,4.596c2.866,0.144,7.283,1.267,9.323,6.457
			c0.18,0.462,0.122,0.984-0.158,1.394c-0.279,0.41-0.743,0.655-1.239,0.655H38.42c-0.11,0-0.218-0.012-0.324-0.035l-7.928-1.754
			c-0.155,0.008-0.371,0.015-0.687,0.017l-7.553,1.641c-0.095,0.021-0.191,0-0.288,0.002l-7.648,0.129
			C13.981,15.865,13.972,15.865,13.961,15.865z M38.584,12.865h4.741c-1.673-2.035-4.101-2.524-6.045-2.524
			c-0.992,0-1.676,0.136-1.683,0.138c-0.465,0.092-0.945-0.036-1.297-0.35c-0.353-0.313-0.539-0.774-0.5-1.245
			c0.074-0.882,1.117-2.585,3.109-5.078c-1.965,0.915-4.164,2.715-5.602,3.983c-0.231,0.531-0.76,1.076-1.375,1.076
			c-0.001,0-0.001,0-0.002,0c-0.638,0-1.185-0.577-1.4-1.142c-1.451-1.288-3.667-3.024-5.635-3.94
			c2.032,2.585,3.095,4.293,3.169,5.182c0.035,0.429-0.115,0.831-0.413,1.141c-0.299,0.31-0.717,0.47-1.146,0.448l-0.181-0.008
			c-0.9,0-4.705,0.134-7.288,2.321l4.396-0.094l7.565-1.644c0.102-0.022,0.206-0.034,0.31-0.034c0.446-0.003,0.647-0.01,0.738-0.017
			c0.18-0.026,0.368-0.021,0.547,0.019L38.584,12.865z"/>
		<path id="path-5_1_" d="M16.727,29.21c0,0.918-0.744,1.662-1.661,1.662c-0.918,0-1.661-0.744-1.661-1.662
			c0-0.917,0.743-1.661,1.661-1.661C15.983,27.549,16.727,28.293,16.727,29.21z"/>
		<path id="path-6_1_" d="M26.695,29.21c0,0.918-0.743,1.662-1.661,1.662c-0.917,0-1.661-0.744-1.661-1.662
			c0-0.917,0.744-1.661,1.661-1.661C25.952,27.549,26.695,28.293,26.695,29.21z"/>
		<path id="path-7_1_" d="M36.664,29.21c0,0.918-0.744,1.662-1.662,1.662c-0.917,0-1.661-0.744-1.661-1.662
			c0-0.917,0.744-1.661,1.661-1.661C35.92,27.549,36.664,28.293,36.664,29.21z"/>
		<path id="path-8_1_" d="M46.632,29.21c0,0.918-0.744,1.662-1.661,1.662c-0.918,0-1.663-0.744-1.663-1.662
			c0-0.917,0.745-1.661,1.663-1.661C45.888,27.549,46.632,28.293,46.632,29.21z"/>
		<path id="path-9_1_" d="M21.158,36.963c0,0.918-0.744,1.662-1.662,1.662c-0.917,0-1.661-0.744-1.661-1.662
			c0-0.917,0.744-1.661,1.661-1.661C20.414,35.302,21.158,36.046,21.158,36.963z"/>
		<path id="path-10" d="M31.126,36.963c0,0.918-0.744,1.662-1.661,1.662c-0.918,0-1.662-0.744-1.662-1.662
			c0-0.917,0.744-1.661,1.662-1.661C30.382,35.302,31.126,36.046,31.126,36.963z"/>
		<path id="path-11" d="M41.094,36.963c0,0.918-0.745,1.662-1.662,1.662s-1.661-0.744-1.661-1.662c0-0.917,0.744-1.661,1.661-1.661
			S41.094,36.046,41.094,36.963z"/>
		<path id="path-12" d="M21.158,21.934c0,0.917-0.744,1.661-1.662,1.661c-0.917,0-1.661-0.744-1.661-1.661
			c0-0.918,0.744-1.661,1.661-1.661C20.414,20.273,21.158,21.016,21.158,21.934z"/>
		<path id="path-13" d="M31.126,21.934c0,0.917-0.744,1.661-1.661,1.661c-0.918,0-1.662-0.744-1.662-1.661
			c0-0.918,0.744-1.661,1.662-1.661C30.382,20.273,31.126,21.016,31.126,21.934z"/>
		<path id="path-14" d="M41.094,21.934c0,0.917-0.745,1.661-1.662,1.661s-1.661-0.744-1.661-1.661c0-0.918,0.744-1.661,1.661-1.661
			S41.094,21.016,41.094,21.934z"/>
		<path id="path-15" d="M25.588,46.931c0,0.918-0.744,1.661-1.661,1.661c-0.918,0-1.662-0.743-1.662-1.661
			c0-0.917,0.744-1.661,1.662-1.661C24.844,45.27,25.588,46.014,25.588,46.931z"/>
		<path id="path-16" d="M35.555,46.931c0,0.918-0.743,1.661-1.661,1.661c-0.917,0-1.661-0.743-1.661-1.661
			c0-0.917,0.744-1.661,1.661-1.661C34.812,45.27,35.555,46.014,35.555,46.931z"/>
		<path id="path-17" d="M31.126,54.684c0,0.918-0.744,1.661-1.661,1.661c-0.918,0-1.662-0.743-1.662-1.661
			c0-0.917,0.744-1.661,1.662-1.661C30.382,53.023,31.126,53.767,31.126,54.684z"/>
	</g>
</g>
<g>
</g>
<g>
</g>
<g>
</g>
<g>
</g>
<g>
</g>
<g>
</g>
<g>
</g>
<g>
</g>
<g>
</g>
<g>
</g>
<g>
</g>
<g>
</g>
<g>
</g>
<g>
</g>
<g>
</g>
</svg>
